<svg xmlns="http://www.w3.org/2000/svg" width="80" height="80" viewBox="0 0 80 80">
    <path fill="#4B79EA" fill-rule="evenodd" d="M79.631 32.601l-21.25-21.25c-.468-.468-1.3-.468-1.768 0l-7.707 7.707-1.381 1.25c-1.784 1.616-3.444 1.778-5.54 1.987-1.135.113-2.307.229-3.585.588-.978.275-1.847.575-2.628.9L23.384 11.352c-.468-.47-1.3-.47-1.768 0L.366 32.602a1.252 1.252 0 0 0 0 1.768l7.74 7.741a1.251 1.251 0 0 0 1.77 0l.905-.906 2.863 2.912c-.256.166-.497.36-.719.578l-.181.182a4.752 4.752 0 0 0-1.4 3.387c0 1.285.497 2.488 1.4 3.388a4.777 4.777 0 0 0 3.388 1.4c.065 0 .128-.016.193-.019-.006.1-.028.194-.028.294 0 1.284.497 2.484 1.4 3.387.935.935 2.16 1.4 3.388 1.4.081 0 .162-.018.244-.021-.004.08-.025.159-.025.24 0 1.285.496 2.485 1.4 3.388.934.934 2.159 1.4 3.387 1.4.081 0 .163-.019.244-.022-.003.081-.025.16-.025.24 0 1.285.497 2.488 1.4 3.388.934.935 2.16 1.4 3.387 1.4a4.782 4.782 0 0 0 3.391-1.403l.338-.338c.184-.184.337-.387.487-.593l4.294 4.275a4.685 4.685 0 0 0 3.322 1.375 4.67 4.67 0 0 0 3.319-1.372 4.675 4.675 0 0 0 1.353-3.522c.065.003.128.019.194.019a4.67 4.67 0 0 0 3.318-1.372 4.662 4.662 0 0 0 1.372-3.322c0-.069-.015-.131-.019-.2.066.003.135.019.2.019a4.682 4.682 0 0 0 3.322-1.372 4.675 4.675 0 0 0 1.353-3.522c.066.003.132.019.2.019a4.682 4.682 0 0 0 3.322-1.372 4.7 4.7 0 0 0 .01-6.628l7.997-7.966 1.25 1.25a1.251 1.251 0 0 0 1.769 0l7.74-7.74a1.233 1.233 0 0 0 .003-1.76zm-76.614.885L22.5 14.002l5.972 5.972L8.99 39.458l-5.972-5.972zm11.491 16.397a2.27 2.27 0 0 1-.666-1.619c0-.615.238-1.19.666-1.622l.181-.18a2.275 2.275 0 0 1 1.622-.67A2.275 2.275 0 0 1 18.6 48.08c0 .615-.238 1.19-.666 1.622l-.181.18a2.297 2.297 0 0 1-3.244 0zm4.953 5.066a2.273 2.273 0 0 1-.665-1.622c0-.613.237-1.19.665-1.619l2.653-2.653a2.285 2.285 0 0 1 1.622-.669c.588 0 1.175.222 1.622.669.431.431.666 1.006.666 1.622 0 .612-.238 1.19-.666 1.618l-2.653 2.657c-.897.894-2.35.89-3.244-.003zm5.01 5.009a2.273 2.273 0 0 1-.666-1.622c0-.612.238-1.19.666-1.619l1.578-1.575a2.268 2.268 0 0 1 1.619-.668c.615 0 1.19.237 1.621.668a2.294 2.294 0 0 1 0 3.241l-1.575 1.575a2.297 2.297 0 0 1-3.243 0zm8.587 4.672l-.338.337a2.294 2.294 0 0 1-3.24 0 2.273 2.273 0 0 1-.666-1.621c0-.613.238-1.188.666-1.62l.344-.343a2.286 2.286 0 0 1 1.615-.666 2.278 2.278 0 0 1 2.285 2.291c0 .613-.238 1.19-.666 1.619v.003zm26.041-10.947a2.2 2.2 0 0 1-3.106 0l-4.456-4.454a1.252 1.252 0 0 0-1.77 0 1.252 1.252 0 0 0 0 1.77l4.457 4.452c.856.857.856 2.25 0 3.11a2.203 2.203 0 0 1-3.11 0l-4.452-4.457a1.252 1.252 0 0 0-1.77 0 1.252 1.252 0 0 0 0 1.77l4.454 4.455c.412.413.64.966.64 1.554 0 .59-.228 1.14-.64 1.553-.85.85-2.228.853-3.084.019-.007-.007-.01-.013-.016-.02l-4.453-4.452a1.251 1.251 0 0 0-.888-.366 1.251 1.251 0 0 0-.887 2.134l4.453 4.454.022.018a2.2 2.2 0 0 1-.016 3.091 2.203 2.203 0 0 1-3.11-.003l-5.162-5.14c.003-.054.016-.104.016-.157a4.752 4.752 0 0 0-4.038-4.716c.56-1.672.197-3.587-1.131-4.916-.75-.75-1.738-1.168-2.763-1.296.138-.45.232-.92.232-1.404a4.752 4.752 0 0 0-1.4-3.387c-1.694-1.694-4.338-1.835-6.213-.46a4.739 4.739 0 0 0-1.213-2.13c-.88-.882-2.09-1.329-3.306-1.348l-3.847-3.912 17.69-17.697 3.188 3.215c-1.95 1.172-3.296 2.541-4.753 4.032-.303.309-.612.628-.937.953l-1.49 1.49a4.805 4.805 0 0 0-1.413 3.42c0 1.293.503 2.509 1.412 3.418a4.805 4.805 0 0 0 3.419 1.412c1.294 0 2.51-.503 3.419-1.412l3.865-3.866c1.003-1.003 2.438-.306 5.72 1.653 1.271.76 2.724 1.62 4.35 2.385l12.087 12.125c.856.86.856 2.253 0 3.11zm.013-6.635l-6.807-6.828c1.091.212 2.225.35 3.429.35.356 0 .721-.013 1.09-.035a1.252 1.252 0 0 0 1.172-1.325 1.229 1.229 0 0 0-1.325-1.171c-5.284.322-9.41-2.144-12.728-4.125-3.231-1.932-6.288-3.754-8.766-1.275l-3.866 3.865a2.323 2.323 0 0 1-1.653.681 2.323 2.323 0 0 1-2.334-2.334c0-.628.24-1.212.681-1.653l1.49-1.49c.332-.332.65-.657.957-.973 2.366-2.418 4.075-4.168 8.625-5.45 1.069-.3 2.128-.406 3.153-.506 2.25-.222 4.575-.453 6.972-2.622l.513-.462 17.39 17.39-7.993 7.963zm11.897-7.59l-1.244-1.244c-.003-.004-.003-.004-.003-.007-.003 0-.003-.003-.007-.003L51.527 19.976l5.972-5.972 19.482 19.482-5.972 5.971z"/>
</svg>
