<svg xmlns="http://www.w3.org/2000/svg" width="80" height="80" viewBox="0 0 80 80">
    <path fill="#4B79EA" fill-rule="evenodd" d="M1.09 29.128c.832-2.612 3.264-4.072 5.723-3.841 2.755.261 4.912 2.727 4.912 5.618v10.034c.723.24 1.389.625 1.94 1.175.064.054 2.608 2.395 3.199 2.996.407.414.825.846 1.246 1.287 2.066 2.15 4.206 4.375 6.655 5.812.57.33 1.127.639 1.674.938 2.81 1.545 5.466 3.002 7.208 6.593 1.508 3.084 2.16 6.787 2.048 11.647l.303 6.223a1.476 1.476 0 1 1-2.949.143l-.305-6.277v-.099c.105-4.4-.452-7.687-1.75-10.343-1.335-2.748-3.383-3.873-5.974-5.3-.568-.312-1.149-.631-1.743-.978-2.806-1.647-5.19-4.127-7.293-6.314-.414-.431-.822-.856-1.223-1.264-.448-.455-2.418-2.275-3.138-2.938-.843-.839-2.127-.798-2.88-.044a2.001 2.001 0 0 0-.588 1.423c0 .54.204 1.043.58 1.42l11.251 11.247c.49.486.574 1.243.21 1.828-.091.149-.224.34-.414.536-.492.506-1.257.632-1.851.252a1.493 1.493 0 0 1-.707-1.2L6.847 49.326c-1.549-1.545-2.069-3.91-1.131-5.883.649-1.365 1.776-2.194 3.057-2.565v-9.973c0-1.382-.982-2.557-2.235-2.676a2.438 2.438 0 0 0-1.899.635 2.477 2.477 0 0 0-.815 1.827v23.115c0 .588.194 1.23.645 1.536l.727.73 11.97 11.976c.456.456.867.856 1.288 1.128.39.251.676.635.737 1.094l.958 7.218a1.475 1.475 0 0 1-1.464 1.671 1.48 1.48 0 0 1-1.464-1.284l-.873-6.58c-.5-.39-.927-.818-1.267-1.158L2.378 57.433c-.34-.34-.727-.727-1.08-1.162-.31-.387-.518-.438-.395-.882-.092-.367-.034-1.19-.034-1.583V30.69c0-.53.064-1.06.22-1.563zm72.093-3.844a5.473 5.473 0 0 1 4.168 1.392 5.443 5.443 0 0 1 1.78 4.015l-.007 23.119c0 .394.057 1.216-.034 1.583.125.444-.082.495-.394.88-.343.424-.71.79-1.067 1.147L64.74 70.31c-.308.306-.675.657-1.09.983l-.874 6.579a1.48 1.48 0 0 1-1.464 1.284 1.475 1.475 0 0 1-1.464-1.671l.958-7.218c.061-.459.35-.843.737-1.094.422-.272.833-.673 1.288-1.128L74.8 56.071l.727-.727c.455-.305.645-.947.645-1.535V30.694c0-.69-.298-1.355-.815-1.827a2.447 2.447 0 0 0-1.902-.635c-1.253.119-2.235 1.294-2.235 2.676v9.973c1.284.37 2.408 1.2 3.057 2.565.94 1.973.418 4.337-1.128 5.883L62.734 59.744a1.432 1.432 0 0 1-.87 1.233c-.594.261-1.273.095-1.711-.384a3.188 3.188 0 0 1-.353-.476 1.48 1.48 0 0 1 .21-1.827l11.253-11.257c.374-.377.581-.88.581-1.42a2.015 2.015 0 0 0-.587-1.423c-.755-.754-2.083-.754-2.837 0-.764.707-2.734 2.524-3.179 2.98-.4.41-.808.832-1.223 1.263-2.106 2.19-4.49 4.67-7.293 6.314-.597.35-1.178.67-1.746.982-2.591 1.427-4.636 2.551-5.971 5.296-1.3 2.659-1.855 5.943-1.75 10.346v.098l-.305 6.277a1.475 1.475 0 1 1-2.948-.142l.302-6.223c-.109-4.861.54-8.564 2.048-11.648 1.743-3.587 4.396-5.044 7.205-6.59a75.325 75.325 0 0 0 1.674-.94c2.45-1.437 4.586-3.662 6.655-5.812.424-.442.839-.873 1.246-1.288.588-.6 3.135-2.941 3.244-3.04.523-.526 1.179-.9 1.892-1.134V30.902c0-2.89 2.157-5.357 4.912-5.618zM41.203 1.102a4.9 4.9 0 0 1 4.894 4.894v.914c0 .051.024.085.034.089a17.79 17.79 0 0 1 4.915 2.826.14.14 0 0 0 .064-.017l.792-.459a4.913 4.913 0 0 1 2.446-.656c1.742 0 3.366.941 4.239 2.45l1.199 2.078a4.9 4.9 0 0 1-1.79 6.685l-.785.452c-.044.027-.061.061-.058.085a17.06 17.06 0 0 1 0 5.632c-.003.02.017.057.058.081l.785.452a4.9 4.9 0 0 1 1.79 6.685l-1.2 2.078a4.91 4.91 0 0 1-4.242 2.45 4.913 4.913 0 0 1-2.445-.656l-.792-.459c-.014-.006-.027-.013-.05-.013-.014 0-.031.003-.052.007a17.282 17.282 0 0 1-4.878 2.815c-.006.004-.034.034-.034.089v.914a4.9 4.9 0 0 1-4.894 4.894h-2.402a4.9 4.9 0 0 1-4.894-4.894v-.914c0-.051-.024-.085-.034-.089a17.79 17.79 0 0 1-4.915-2.826.14.14 0 0 0-.065.017l-.791.459a4.913 4.913 0 0 1-2.446.656 4.916 4.916 0 0 1-4.24-2.45l-1.198-2.078a4.9 4.9 0 0 1 1.79-6.685l.785-.452c.044-.024.06-.061.057-.081a17.06 17.06 0 0 1 0-5.632c.004-.02-.017-.058-.057-.082l-.785-.452a4.9 4.9 0 0 1-1.79-6.684l1.199-2.08a4.91 4.91 0 0 1 4.242-2.448c.856 0 1.702.227 2.446.655l.791.459c.014.007.028.014.051.014.014 0 .031-.004.051-.007a17.282 17.282 0 0 1 4.878-2.816c.007-.003.034-.034.034-.088v-.918a4.9 4.9 0 0 1 4.895-4.894zm-.004 2.656h-2.402a2.247 2.247 0 0 0-2.248 2.249v.913c0 1.135-.69 2.164-1.75 2.565a14.64 14.64 0 0 0-4.133 2.384 2.71 2.71 0 0 1-1.716.608c-.475 0-.954-.125-1.386-.373l-.791-.459a2.242 2.242 0 0 0-1.121-.302c-.778 0-1.532.404-1.95 1.124l-1.199 2.08a2.246 2.246 0 0 0 .822 3.07l.785.451a2.728 2.728 0 0 1 1.345 2.806 14.511 14.511 0 0 0 0 4.77 2.728 2.728 0 0 1-1.345 2.805l-.785.452a2.248 2.248 0 0 0-.822 3.07l1.202 2.08a2.251 2.251 0 0 0 1.95 1.123c.38 0 .768-.098 1.121-.302l.792-.458a2.75 2.75 0 0 1 1.386-.374c.611 0 1.219.204 1.715.608a14.766 14.766 0 0 0 4.134 2.385c1.063.4 1.749 1.43 1.749 2.564v.914a2.247 2.247 0 0 0 2.249 2.248h2.401a2.247 2.247 0 0 0 2.249-2.248v-.914c0-1.134.69-2.164 1.749-2.564a14.64 14.64 0 0 0 4.134-2.385 2.71 2.71 0 0 1 1.715-.608c.476 0 .955.126 1.386.374l.792.458c.353.204.74.302 1.12.302.778 0 1.533-.404 1.95-1.124l1.2-2.079a2.246 2.246 0 0 0-.823-3.07l-.784-.452a2.728 2.728 0 0 1-1.345-2.806 14.512 14.512 0 0 0 0-4.769 2.728 2.728 0 0 1 1.345-2.806l.784-.451a2.26 2.26 0 0 0 .826-3.078l-1.203-2.078a2.251 2.251 0 0 0-1.95-1.125c-.38 0-.767.099-1.12.302l-.792.459a2.75 2.75 0 0 1-1.386.374 2.71 2.71 0 0 1-1.715-.608A14.766 14.766 0 0 0 45.2 9.478c-1.063-.4-1.75-1.43-1.75-2.564l-.003-.907A2.247 2.247 0 0 0 41.2 3.758zM40 14.665c4.738 0 8.594 3.856 8.594 8.597 0 4.739-3.856 8.594-8.594 8.594-4.738 0-8.594-3.855-8.594-8.597 0-4.738 3.856-8.594 8.594-8.594zm0 2.643a5.952 5.952 0 1 0 0 11.903 5.952 5.952 0 0 0 0-11.903z"/>
</svg>
