<svg xmlns="http://www.w3.org/2000/svg" width="432" height="375" viewBox="0 0 432 375">
    <g fill="none" fill-rule="evenodd">
        <path fill="#000" d="M215.35 54L100 121.28l.596 133.536 115.943 66.257 115.347-67.284-.596-133.538L215.35 54zM109.99 249.337l-.546-122.659 105.953-61.805 106.499 60.86.546 122.659-105.953 61.805-106.499-60.86z"/>
        <path fill="#5BE490" d="M284.707 187.535c0 37.981-30.788 68.766-68.763 68.766-37.978 0-68.769-30.785-68.769-68.766 0-37.978 30.791-68.763 68.77-68.763 37.974 0 68.762 30.785 68.762 68.763"/>
        <path stroke="#3D3D45" stroke-linecap="round" stroke-linejoin="round" stroke-width="6.279" d="M197.222 217.807l-16.135 20.103M211.264 225.733v29.425M225.795 233.931l15.645 38.035"/>
        <path fill="#BEBED7" d="M259.406 245.69l-6.054 3.793-78.09-51.272v-74.003l84.144 47.479z"/>
        <path stroke="#3D3D45" stroke-linecap="round" stroke-linejoin="round" stroke-width="3.14" d="M259.406 245.69l-6.054 3.793-78.09-51.272v-74.003l84.144 47.479z"/>
        <path fill="#BEBED7" d="M162.893 119.792l96.844 59.287 6.02-3.815v-4.838l-96.845-54.442z"/>
        <path stroke="#3D3D45" stroke-linecap="round" stroke-linejoin="round" stroke-width="3.14" d="M162.893 119.792l96.844 59.287 6.02-3.815v-4.838l-96.845-54.442z"/>
        <path fill="#F8F6FF" d="M253.353 249.483l-84.144-47.479v-74.006l84.144 47.479z"/>
        <path stroke="#3D3D45" stroke-linecap="round" stroke-linejoin="round" stroke-width="3.14" d="M253.353 249.483l-84.144-47.479v-74.006l84.144 47.479z"/>
        <path fill="#F8F6FF" d="M162.893 124.434l96.844 54.644v-4.845l-96.844-54.443z"/>
        <path stroke="#3D3D45" stroke-linecap="round" stroke-linejoin="round" stroke-width="3.14" d="M162.893 124.434l96.844 54.644v-4.845l-96.844-54.443zM169.21 136.202l84.144 47.48M259.737 174.234l6.019-3.808"/>
        <path fill="#BEBED7" d="M218.12 206.183c-.386.917-.455 1.947-.487 2.192v.056c-.028 2.433.82 5.294 2.722 8 1.793 2.55 5.564 8.42 5.564 8.42l4.085-1.883s.527-.462.26-.857l1.658-.848 4.082-1.89s.722-1.893.735-2.999c.025-2.364-.905-5.111-2.707-7.664l-.016-.009c-1.82-2.575-4.179-4.61-6.559-5.598-1.535-.64-1.89-.6-2.932-.964l-16.436-23.965c.223-.77.276-1.617.279-2.421.003-2.446-.86-5.294-2.775-7.984a1.536 1.536 0 0 0-.092-.11c-1.799-2.49-4.084-4.452-6.524-5.438-1.017-.415-2.012-.735-3.07-.895-.384-.063-4.082 1.887-4.082 1.887l-.96 2c-.255-.355-.95-.644-.95-.644l-4.024 2.336s4.326 6.233 6.141 8.779c1.84 2.562 4.23 4.58 6.615 5.548.911.367 1.834.63 2.741.797l16.732 24.154z"/>
        <path fill="#4B79EA" d="M211.133 212.407c-.424.996-.497 2.12-.534 2.39v.056c-.028 2.65.895 5.768 2.964 8.71 1.953 2.778 6.062 9.174 6.062 9.174l4.446-2.056s.575-.5.286-.933l-6.082-8.939 1.275-3.548 3.969.697 2.643 10.867 4.443-2.057s.785-2.062.798-3.265c.03-2.571-.986-5.563-2.942-8.345l-.02-.01c-1.984-2.803-4.549-5.02-7.145-6.094-1.667-.697-2.057-.653-3.19-1.052l-17.897-26.094c.245-.835.299-1.755.302-2.637.003-2.656-.936-5.761-3.02-8.69a.892.892 0 0 0-.095-.117c-1.962-2.716-4.455-4.85-7.108-5.925-1.108-.452-2.195-.8-3.34-.976-.425-.063-4.446 2.06-4.446 2.06l9.08 11.369-3.95-.647-6.176-8.547c-.276-.386-1.033-.703-1.033-.703l-4.383 2.546s4.713 6.785 6.688 9.558c2.003 2.788 4.602 4.989 7.202 6.04.992.4 1.997.685 2.98.867l18.223 26.301z"/>
        <path stroke="#3D3D45" stroke-linecap="round" stroke-linejoin="round" stroke-width="3.14" d="M211.133 212.407c-.424.996-.497 2.12-.534 2.39v.056c-.028 2.65.895 5.768 2.964 8.71 1.953 2.778 6.062 9.174 6.062 9.174l4.446-2.056s.575-.5.286-.933l-6.082-8.939 1.275-3.548 3.969.697 2.643 10.867 4.443-2.057s.785-2.062.798-3.265c.03-2.571-.986-5.563-2.942-8.345l-.02-.01c-1.984-2.803-4.549-5.02-7.145-6.094-1.667-.697-2.057-.653-3.19-1.052l-17.897-26.094c.245-.835.299-1.755.302-2.637.003-2.656-.936-5.761-3.02-8.69a.892.892 0 0 0-.095-.117c-1.962-2.716-4.455-4.85-7.108-5.925-1.108-.452-2.195-.8-3.34-.976-.425-.063-4.446 2.06-4.446 2.06l9.08 11.369-3.95-.647-6.176-8.547c-.276-.386-1.033-.703-1.033-.703l-4.383 2.546s4.713 6.785 6.688 9.558c2.003 2.788 4.602 4.989 7.202 6.04.992.4 1.997.685 2.98.867l18.223 26.301z"/>
        <path fill="#9BBBF9" d="M206.686 214.462c-.423.995-.496 2.12-.53 2.39v.056c-.032 2.653.895 5.767 2.96 8.71 1.957 2.778 4.453 4.998 7.147 6.115 1.105.459 2.21.82 3.362 1.002.405.053.575-.5.286-.933l-6.082-8.935 1.275-3.551 3.969.697 6.119 8.6c.273.386.8.502.97.21.53-.923.782-2.063.798-3.265.028-2.572-.986-5.56-2.946-8.346l-.018-.01c-1.985-2.8-4.55-5.02-7.146-6.093-1.668-.697-2.057-.653-3.19-1.052l-17.897-26.091c.245-.839.299-1.758.302-2.64.003-2.657-.933-5.762-3.02-8.691a.846.846 0 0 0-.095-.117c-1.962-2.712-4.455-4.85-7.108-5.924-1.105-.45-2.192-.8-3.34-.974-.422-.065-.597.512-.287.949l6.135 8.866-1.215 3.61-3.95-.646-6.175-8.546c-.276-.386-.804-.503-.97-.21-.522.929-.776 2.062-.779 3.274-.003 2.581 1.046 5.564 3.02 8.336 2.004 2.791 4.603 4.99 7.203 6.04a15.4 15.4 0 0 0 2.983.867l18.22 26.302z"/>
        <path stroke="#3D3D45" stroke-linecap="round" stroke-linejoin="round" stroke-width="3.14" d="M206.686 214.462c-.423.995-.496 2.12-.53 2.39v.056c-.032 2.653.895 5.767 2.96 8.71 1.957 2.778 4.453 4.998 7.147 6.115 1.105.459 2.21.82 3.362 1.002.405.053.575-.5.286-.933l-6.082-8.935 1.275-3.551 3.969.697 6.119 8.6c.273.386.8.502.97.21.53-.923.782-2.063.798-3.265.028-2.572-.986-5.56-2.946-8.346l-.018-.01c-1.985-2.8-4.55-5.02-7.146-6.093-1.668-.697-2.057-.653-3.19-1.052l-17.897-26.091c.245-.839.299-1.758.302-2.64.003-2.657-.933-5.762-3.02-8.691a.846.846 0 0 0-.095-.117c-1.962-2.712-4.455-4.85-7.108-5.924-1.105-.45-2.192-.8-3.34-.974-.422-.065-.597.512-.287.949l6.135 8.866-1.215 3.61-3.95-.646-6.175-8.546c-.276-.386-.804-.503-.97-.21-.522.929-.776 2.062-.779 3.274-.003 2.581 1.046 5.564 3.02 8.336 2.004 2.791 4.603 4.99 7.203 6.04a15.4 15.4 0 0 0 2.983.867l18.22 26.302z"/>
    </g>
</svg>
