<svg xmlns="http://www.w3.org/2000/svg" width="432" height="375" viewBox="0 0 432 375">
    <g fill="none" fill-rule="evenodd">
        <path fill="#000" d="M215.35 54L100 121.28l.593 133.536 115.946 66.257 115.347-67.284-.593-133.538L215.349 54zM109.99 249.337l-.55-122.659 105.957-61.805 106.499 60.86.546 122.659-105.953 61.805-106.499-60.86z"/>
        <path fill="#5BE490" d="M284.708 187.535c0 37.981-30.788 68.766-68.763 68.766-37.981 0-68.77-30.785-68.77-68.766 0-37.978 30.789-68.763 68.77-68.763 37.975 0 68.763 30.785 68.763 68.763"/>
        <path fill="#BEBED7" d="M190.516 123.217s-7.365-2.76-11.541 0c-4.886 3.221-4.835 8.888-4.835 8.888l52.995 121.061 16.376-8.888v-90.625l-52.995-30.436z"/>
        <path stroke="#3D3D45" stroke-linecap="round" stroke-linejoin="round" stroke-width="3.14" d="M190.516 123.217s-7.365-2.76-11.541 0c-4.886 3.221-4.835 8.888-4.835 8.888l52.995 121.061 16.376-8.888v-90.625l-52.995-30.436z"/>
        <path fill="#F8F6FF" d="M174.14 132.106v90.932l52.995 30.129v-90.625z"/>
        <path stroke="#3D3D45" stroke-linecap="round" stroke-linejoin="round" stroke-width="3.14" d="M174.14 132.106v90.932l52.995 30.129v-90.625zM227.135 162.543l16.377-8.889"/>
        <path fill="#9BBBF9" d="M182.79 227.554v-90.48l-8.65-4.967v90.932z"/>
        <path stroke="#3D3D45" stroke-linecap="round" stroke-linejoin="round" stroke-width="3.14" d="M182.79 227.554v-90.48l-8.65-4.967v90.932z"/>
        <path fill="#F8F6FF" d="M217.007 194.486l-24.414-14.025"/>
        <path stroke="#3D3D45" stroke-linecap="round" stroke-linejoin="round" stroke-width="3.14" d="M217.007 194.486l-24.414-14.025"/>
        <path fill="#F8F6FF" d="M210.517 180.462l-12.399-7.124"/>
        <path stroke="#3D3D45" stroke-linecap="round" stroke-linejoin="round" stroke-width="3.14" d="M210.517 180.462l-12.399-7.124"/>
        <path fill="#9BBBF9" d="M249.695 170.31v81.751l5.118 12.32 5.118-12.32V170.31"/>
        <path stroke="#3D3D45" stroke-linecap="round" stroke-linejoin="round" stroke-width="3.14" d="M249.695 170.31v81.751l5.118 12.32 5.118-12.32V170.31"/>
        <path fill="#4B79EA" d="M259.93 170.31c0 1.673-2.289 3.03-5.118 3.03-2.825 0-5.117-1.357-5.117-3.03 0-1.67 2.292-3.03 5.117-3.03 2.83 0 5.118 1.36 5.118 3.03"/>
        <path stroke="#3D3D45" stroke-linecap="round" stroke-linejoin="round" stroke-width="3.14" d="M259.93 170.31c0 1.673-2.289 3.03-5.118 3.03-2.825 0-5.117-1.357-5.117-3.03 0-1.67 2.292-3.03 5.117-3.03 2.83 0 5.118 1.36 5.118 3.03zM259.93 251.844c0 1.673-2.289 3.03-5.118 3.03-2.825 0-5.117-1.357-5.117-3.03"/>
        <path fill="#4B79EA" d="M249.695 210.31c0 1.674 2.29 3.03 5.118 3.03 2.826 0 5.118-1.356 5.118-3.03v18.88c0 1.673-2.292 3.029-5.118 3.029-2.829 0-5.118-1.356-5.118-3.03V210.31z"/>
        <path stroke="#3D3D45" stroke-linecap="round" stroke-linejoin="round" stroke-width="3.14" d="M249.695 210.31c0 1.674 2.29 3.03 5.118 3.03 2.826 0 5.118-1.356 5.118-3.03v18.88c0 1.673-2.292 3.029-5.118 3.029-2.829 0-5.118-1.356-5.118-3.03V210.31z"/>
    </g>
</svg>
