<svg xmlns="http://www.w3.org/2000/svg" width="45" height="45" viewBox="0 0 45 45">
    <path fill="#797989" fill-rule="evenodd" d="M3.35 14.783C.588 5.287 9.315 2.735 10.333 3.869c1.018 1.276 6.109 7.795 6.109 7.795s1.309.85-.727 2.55c-1.89 1.702-2.91 3.118-2.91 3.118s-.582.426.583 2.41c.872 1.56 10.037 10.488 11.635 11.337 2.036 1.134 2.473.708 2.473.708s1.455-1.134 3.2-2.975c1.746-1.842 2.763-.568 2.763-.568s6.69 4.96 7.854 5.952c1.309.85-1.31 9.354-11.2 6.66C19.64 38.022 6.258 24.985 3.35 14.78v.003z"/>
</svg>
