<svg xmlns="http://www.w3.org/2000/svg" width="45" height="45" viewBox="0 0 45 45">
    <path fill="#797989" fill-rule="evenodd" d="M9.093 36.81H.563V10.687h1.706v22.64c0 .461.179.905.499 1.232.32.326.755.51 1.207.51h8.036c.3-.027.603-.027.904 0a8.52 8.52 0 0 1 5.648 3.743 21.543 21.543 0 0 0-9.47-2.002zm12.282.315l-.152-.174c-2.097-2.837-5.315-4.558-8.775-4.693h-6.26V6.188h6.26c4.354 0 8.033 4.223 8.775 10.045a.582.582 0 0 0 0 .191c.093.64.144 1.284.152 1.93v18.771zm2.965-.174l-.152.174V18.354c-.004-.646.036-1.29.118-1.93a.582.582 0 0 0 0-.19c.776-5.823 4.455-10.047 8.808-10.047h6.261V32.26h-6.26c-.412.002-.823.03-1.233.087h-.388c-2.862.556-5.414 2.2-7.155 4.605zm20.66.373h-8.53A21.83 21.83 0 0 0 27 39.375a8.66 8.66 0 0 1 5.647-3.79c.301-.025.604-.025.905 0h8.036c.452 0 .887-.182 1.207-.508.32-.326.499-.769.499-1.23V11.25H45v26.074z"/>
</svg>
