<?xml version="1.0" encoding="utf-8"?>
<!-- Generator: Adobe Illustrator 23.1.1, SVG Export Plug-In . SVG Version: 6.00 Build 0)  -->
<svg version="1.1" xmlns="http://www.w3.org/2000/svg" xmlns:xlink="http://www.w3.org/1999/xlink" x="0px" y="0px"
	 viewBox="0 0 100 82.1" style="enable-background:new 0 0 100 82.1;" xml:space="preserve">
<style type="text/css">
	.st0{fill:#797989;}
</style>
<g id="Calque_2">
</g>
<g id="Calque_1">
	<g>
		<g>
			<g>
				<path class="st0" d="M5.4,10.7c-3,0-5.4-2.4-5.4-5.4l0,0C0,2.4,2.4,0,5.4,0l0,0h89.3c3,0,5.4,2.4,5.4,5.4l0,0
					c0,3-2.4,5.4-5.4,5.4l0,0H5.4L5.4,10.7z"/>
			</g>
			<g>
				<path class="st0" d="M5.4,46.4c-3,0-5.4-2.4-5.4-5.4l0,0c0-3,2.4-5.4,5.4-5.4l0,0h89.3c3,0,5.4,2.4,5.4,5.4l0,0
					c0,3-2.4,5.4-5.4,5.4l0,0L5.4,46.4L5.4,46.4z"/>
			</g>
			<g>
				<path class="st0" d="M5.4,82.1c-3,0-5.4-2.4-5.4-5.4l0,0c0-3,2.4-5.4,5.4-5.4l0,0h89.3c3,0,5.4,2.4,5.4,5.4l0,0
					c0,3-2.4,5.4-5.4,5.4l0,0H5.4L5.4,82.1z"/>
			</g>
		</g>
	</g>
</g>
</svg>
