<?xml version="1.0" encoding="utf-8"?>
<!-- Generator: Adobe Illustrator 23.1.1, SVG Export Plug-In . SVG Version: 6.00 Build 0)  -->
<svg version="1.1" id="Calque_1" xmlns="http://www.w3.org/2000/svg" xmlns:xlink="http://www.w3.org/1999/xlink" x="0px" y="0px"
	 viewBox="0 0 100 82.1" style="enable-background:new 0 0 100 82.1;" xml:space="preserve">
<style type="text/css">
	.st0{fill:#FFFFFF;}
</style>
<g>
	<g>
		<path class="st0" d="M22.3,76.4c-2.1,2.1-5.5,2.1-7.6,0l0,0c-2.1-2.1-2.1-5.5,0-7.6l0,0L77.8,5.6c2.1-2.1,5.5-2.1,7.6,0l0,0
			c2.1,2.1,2.1,5.5,0,7.6l0,0L22.3,76.4L22.3,76.4z"/>
	</g>
</g>
<g>
	<g>
		<path class="st0" d="M85.4,68.8c2.1,2.1,2.1,5.5,0,7.6l0,0c-2.1,2.1-5.5,2.1-7.6,0l0,0L14.7,13.2c-2.1-2.1-2.1-5.5,0-7.6l0,0
			c2.1-2.1,5.5-2.1,7.6,0l0,0L85.4,68.8L85.4,68.8z"/>
	</g>
</g>
</svg>
