<?xml version="1.0" encoding="UTF-8" standalone="no"?>
<!-- Generator: Adobe Illustrator 19.0.0, SVG Export Plug-In . SVG Version: 6.00 Build 0)  -->

<svg
   xmlns:dc="http://purl.org/dc/elements/1.1/"
   xmlns:cc="http://creativecommons.org/ns#"
   xmlns:rdf="http://www.w3.org/1999/02/22-rdf-syntax-ns#"
   xmlns:svg="http://www.w3.org/2000/svg"
   xmlns="http://www.w3.org/2000/svg"
   xmlns:sodipodi="http://sodipodi.sourceforge.net/DTD/sodipodi-0.dtd"
   xmlns:inkscape="http://www.inkscape.org/namespaces/inkscape"
   version="1.1"
   id="Layer_1"
   x="0px"
   y="0px"
   viewBox="0 0 15 12"
   xml:space="preserve"
   sodipodi:docname="gear.svg"
   width="15"
   height="12"
   inkscape:version="0.92.4 (5da689c313, 2019-01-14)"><metadata
   id="metadata43"><rdf:RDF><cc:Work
       rdf:about=""><dc:format>image/svg+xml</dc:format><dc:type
         rdf:resource="http://purl.org/dc/dcmitype/StillImage" /><dc:title></dc:title></cc:Work></rdf:RDF></metadata><defs
   id="defs41" /><sodipodi:namedview
   pagecolor="#ffffff"
   bordercolor="#666666"
   borderopacity="1"
   objecttolerance="10"
   gridtolerance="10"
   guidetolerance="10"
   inkscape:pageopacity="0"
   inkscape:pageshadow="2"
   inkscape:window-width="1570"
   inkscape:window-height="876"
   id="namedview39"
   showgrid="false"
   inkscape:zoom="10.24"
   inkscape:cx="15.141014"
   inkscape:cy="21.001375"
   inkscape:window-x="0"
   inkscape:window-y="0"
   inkscape:window-maximized="0"
   inkscape:current-layer="Layer_1" />

<g
   id="g8"
   transform="translate(0,-500)">
</g>
<g
   id="g10"
   transform="translate(0,-500)">
</g>
<g
   id="g12"
   transform="translate(0,-500)">
</g>
<g
   id="g14"
   transform="translate(0,-500)">
</g>
<g
   id="g16"
   transform="translate(0,-500)">
</g>
<g
   id="g18"
   transform="translate(0,-500)">
</g>
<g
   id="g20"
   transform="translate(0,-500)">
</g>
<g
   id="g22"
   transform="translate(0,-500)">
</g>
<g
   id="g24"
   transform="translate(0,-500)">
</g>
<g
   id="g26"
   transform="translate(0,-500)">
</g>
<g
   id="g28"
   transform="translate(0,-500)">
</g>
<g
   id="g30"
   transform="translate(0,-500)">
</g>
<g
   id="g32"
   transform="translate(0,-500)">
</g>
<g
   id="g34"
   transform="translate(0,-500)">
</g>
<g
   id="g36"
   transform="translate(0,-500)">
</g>
<path
   inkscape:connector-curvature="0"
   style="fill:#697c86;stroke-width:0.02325659"
   d="M 13.228868,4.951348 11.893887,4.6861688 C 11.803221,4.3931895 11.69157,4.1141116 11.545035,3.8419355 l 0.73967,-1.1093203 c 0.09067,-0.1395402 0.07668,-0.3209585 -0.04197,-0.4395137 L 11.25206,1.3023338 C 11.133504,1.1837813 10.952083,1.1697904 10.812546,1.260456 L 9.7032234,2.0000327 C 9.4310504,1.8535879 9.1519692,1.7419399 8.8589925,1.6511846 L 8.5938107,0.31629047 C 8.5589312,0.15576773 8.4193871,0.03721252 8.2519598,0.03721252 H 6.8565615 c -0.1674271,0 -0.3069675,0.11855521 -0.3418539,0.27907795 L 6.2495284,1.6511846 C 5.9565491,1.7419399 5.6774712,1.8535879 5.4052951,2.0000327 L 4.2959749,1.260456 C 4.1564346,1.1697904 3.9750163,1.1837813 3.8564611,1.3023338 L 2.8657857,2.2931015 C 2.7471409,2.4116567 2.73315,2.593075 2.8238156,2.7326152 L 3.5634819,3.8419355 C 3.4169475,4.1141116 3.3052995,4.3930999 3.2146338,4.6861688 L 1.8796501,4.951348 C 1.7191273,4.986234 1.6005721,5.1257747 1.6005721,5.293202 v 1.3953976 c 0,0.1674272 0.1185552,0.3069676 0.279078,0.3418513 l 1.3349837,0.265182 c 0.090666,0.2929766 0.2023137,0.5720572 0.3488481,0.8441409 L 2.8238156,9.2491867 c -0.090666,0.1395372 -0.076675,0.3209578 0.041971,0.4395134 L 3.856462,10.679376 c 0.1116507,0.118644 0.2999735,0.132635 0.4395137,0.04189 L 5.405296,9.9816821 C 5.6774721,10.128217 5.95655,10.239868 6.2495292,10.330534 l 0.2651793,1.33498 c 0.034886,0.160437 0.1744264,0.279081 0.3418535,0.279081 h 1.3953978 c 0.1674273,0 0.3069664,-0.118644 0.3418509,-0.279081 l 0.2651818,-1.33498 c 0.2929767,-0.09067 0.5720579,-0.202317 0.8442309,-0.3488519 l 1.1093226,0.7395799 c 0.139537,0.09076 0.320958,0.07677 0.439514,-0.04189 L 12.242735,9.6887001 C 12.36138,9.5701445 12.37537,9.3887239 12.284701,9.2491867 L 11.545035,8.1397738 C 11.69157,7.8676901 11.803221,7.5886095 11.893887,7.2956329 l 1.334981,-0.265182 c 0.160525,-0.034883 0.27908,-0.1744241 0.27908,-0.3418513 V 5.293202 c 0,-0.1674273 -0.118555,-0.3069676 -0.27908,-0.341854 z M 7.5542603,8.4328427 c -1.3465202,0 -2.4419418,-1.0954216 -2.4419418,-2.4419419 0,-1.3465203 1.0954216,-2.4419419 2.4419418,-2.4419419 1.3465208,0 2.4419418,1.0954216 2.4419418,2.4419419 0,1.3465203 -1.095421,2.4419419 -2.4419418,2.4419419 z m 0,0"
   id="path2-3" /><path
   inkscape:connector-curvature="0"
   style="fill:#596c76;stroke-width:0.02325659"
   d="m 13.507948,5.293202 v 1.3953976 c 0,0.1674272 -0.118555,0.3069676 -0.27908,0.3418513 l -1.334981,0.265182 c -0.09067,0.2929766 -0.202317,0.5720572 -0.348852,0.8441409 l 0.73967,1.1094129 c 0.09067,0.1395372 0.07668,0.3209578 -0.04197,0.4395134 L 11.25206,10.679376 c -0.118556,0.118644 -0.299977,0.132635 -0.439514,0.04189 L 9.7032274,9.9816821 C 9.4310534,10.128217 9.1519732,10.239868 8.8589965,10.330534 l -0.2651817,1.33498 c -0.034882,0.160437 -0.1744247,0.279081 -0.341851,0.279081 H 7.5542603 V 8.4328427 c 1.3465208,0 2.4419418,-1.0954216 2.4419418,-2.4419419 0,-1.3465203 -1.095421,-2.4419419 -2.4419418,-2.4419419 V 0.03721252 h 0.6976995 c 0.1674273,0 0.3069664,0.11855521 0.3418509,0.27907795 L 8.8589925,1.6511846 c 0.2929767,0.090756 0.5720579,0.2024033 0.8442309,0.3488481 L 10.812546,1.260456 C 10.952083,1.16979 11.133504,1.183781 11.25206,1.302334 l 0.990675,0.9907677 c 0.118644,0.1185552 0.132635,0.2999735 0.04197,0.4395137 l -0.73967,1.1093203 c 0.146535,0.2721761 0.258187,0.5511644 0.348853,0.8442333 l 1.33498,0.2651792 c 0.160525,0.034886 0.279081,0.1744267 0.279081,0.341854 z m 0,0"
   id="path4" /><path
   inkscape:connector-curvature="0"
   style="fill:#465a61;stroke-width:0.02325659"
   d="m 7.5542603,2.8512601 c -1.7302547,0 -3.1396406,1.4092963 -3.1396406,3.1396407 0,1.7302548 1.4093859,3.1396407 3.1396406,3.1396407 1.7302556,0 3.1396407,-1.4093859 3.1396407,-3.1396407 0,-1.7303444 -1.4093851,-3.1396407 -3.1396407,-3.1396407 z m 0,4.5350357 c -0.7674692,0 -1.3953949,-0.6279287 -1.3953949,-1.395395 0,-0.7674689 0.6279257,-1.395395 1.3953949,-1.395395 0.7674656,0 1.395396,0.6279261 1.395396,1.395395 0,0.7674663 -0.6279304,1.395395 -1.395396,1.395395 z m 0,0"
   id="path6" /><path
   inkscape:connector-curvature="0"
   style="fill:#3b4a51;stroke-width:0.02325659"
   d="m 10.693901,5.9909008 c 0,1.7302548 -1.4093851,3.1396407 -3.1396407,3.1396407 V 7.3862958 c 0.7674656,0 1.395396,-0.6279287 1.395396,-1.395395 0,-0.7674689 -0.6279304,-1.395395 -1.395396,-1.395395 V 2.8512601 c 1.7302556,0 3.1396407,1.4092963 3.1396407,3.1396407 z m 0,0"
   id="path8" /></svg>