<svg xmlns="http://www.w3.org/2000/svg" width="160" height="60" viewBox="0 0 160 60">
    <g fill="none" fill-rule="nonzero">
        <path fill="#797989" d="M68.821 20.648a.94.94 0 0 1 .394-.964.924.924 0 0 1 1.035 0 .94.94 0 0 1 .394.964.932.932 0 0 1-.912.751.932.932 0 0 1-.91-.75zm.893 18.402a.56.56 0 0 1-.558-.562V25.483c0-.31.25-.562.558-.562.314 0 .575.246.595.562v13.005a.597.597 0 0 1-.595.562zM76.031 26.297v12.194a.605.605 0 0 1-.611.56.567.567 0 0 1-.574-.56V25.7c0-.316.25-.578.574-.597h9.938c2.16.02 3.9 1.734 3.9 3.84v9.547a.604.604 0 0 1-.574.56.605.605 0 0 1-.611-.56v-9.546c0-1.463-1.216-2.648-2.715-2.648h-2.714v12.194a.605.605 0 0 1-.611.56.567.567 0 0 1-.574-.56V26.297h-5.428zM93.441 44.961v-19.26c0-.316.254-.578.582-.597h3.37c2.189.02 3.952 1.735 3.951 3.844v6.196c0 2.103-1.769 3.808-3.951 3.808h-2.75v6.01c0 .33-.278.597-.62.597a.607.607 0 0 1-.582-.598zm3.952-18.663h-2.75v11.497h2.75c.73 0 1.43-.28 1.945-.777a2.602 2.602 0 0 0 .806-1.874v-6.196c0-.703-.29-1.377-.806-1.874a2.804 2.804 0 0 0-1.945-.776zM105.53 38.49V25.7a.557.557 0 0 1 .562-.596h3.263c.67.024 1.325.202 1.913.522a.56.56 0 0 1 .225.783.6.6 0 0 1-.825.224c-.4-.225-.853-.34-1.313-.336h-2.663v12.194a.599.599 0 0 1-.6.56.561.561 0 0 1-.562-.56zM113.896 35.151v-6.613c0-2.154 1.77-3.9 3.952-3.9s3.951 1.746 3.951 3.9v6.613a3.89 3.89 0 0 1-1.975 3.377 3.998 3.998 0 0 1-3.952 0 3.89 3.89 0 0 1-1.976-3.377zm1.201-6.613v6.613c0 .97.525 1.866 1.376 2.35.85.485 1.9.485 2.75 0a2.708 2.708 0 0 0 1.375-2.35v-6.613c0-.97-.524-1.866-1.375-2.35a2.783 2.783 0 0 0-2.75 0 2.708 2.708 0 0 0-1.376 2.35zM124.614 25.392a.593.593 0 0 1 .125-.567.554.554 0 0 1 .538-.172.57.57 0 0 1 .414.394s2.527 8.57 3.307 11.323c.817-2.754 3.307-11.323 3.307-11.323a.588.588 0 0 1 .693-.294c.27.084.445.35.421.639l-3.864 13.235a.56.56 0 0 1-.557.421.486.486 0 0 1-.52-.42l-3.864-13.236zM136.676 20.471a.985.985 0 0 1 .948-.946c.51.02.912.438.911.946a.91.91 0 0 1-.91.908c-.51 0-.929-.4-.95-.908zm.948 18.58a.606.606 0 0 1-.607-.568v-13.13a.606.606 0 0 1 .607-.568c.315 0 .57.254.57.567v13.13a.567.567 0 0 1-.57.568zM141.866 38.186l6.246-11.88h-5.706a.61.61 0 0 1-.617-.6.61.61 0 0 1 .617-.602h6.708a.619.619 0 0 1 .501.3c.044.096.07.197.077.301a.517.517 0 0 1-.077.263l-6.245 11.917h5.744a.61.61 0 0 1 .578.564.608.608 0 0 1-.578.601h-6.708a.62.62 0 0 1-.54-.3.698.698 0 0 1-.038-.301.624.624 0 0 1 .038-.263zM152.483 35.117v-6.592c0-2.146 1.768-3.886 3.95-3.886 2.183 0 3.952 1.74 3.952 3.886v3.315a.616.616 0 0 1-.62.572h-6.082v2.705a2.705 2.705 0 0 0 1.705 2.515 2.744 2.744 0 0 0 2.982-.61.628.628 0 0 1 .762.089c.203.2.24.509.09.75a3.959 3.959 0 0 1-4.324.897 3.847 3.847 0 0 1-2.415-3.641zm1.2-6.592v2.705h5.5v-2.705c0-1.494-1.23-2.705-2.75-2.705-1.518 0-2.75 1.211-2.75 2.705z"/>
        <path fill="#FFF" d="M50.015 17.501L26.894 4.142 3.773 17.502V44.2l23.12 13.34 23.122-13.34v-.02z"/>
        <path fill="#AEAECE" d="M26.894 4.142L3.773 17.502v26.68l23.14-13.34z" opacity=".05"/>
        <path fill="#AEAECE" d="M26.894 4.142l23.121 13.36v26.68l-23.121-13.36z" opacity=".1"/>
        <path fill="#AEAECE" d="M3.773 44.2l23.12 13.341 23.122-13.34-23.102-13.36z" opacity=".15"/>
        <path fill="#AEAECE" d="M3.773 13.34L26.893 0l23.122 13.34L26.894 26.7zM53.788 19.388l-23.122 13.34v26.7l23.122-13.34z" opacity=".1"/>
        <path fill="#AEAECE" d="M0 19.388v26.7l23.121 13.34v-26.7z" opacity=".15"/>
        <path fill="#EF955B" d="M37.142 17.19l-3.675-2.12v4.24z"/>
        <path fill="#EDB883" d="M29.81 17.19l3.657 2.12v-4.24z"/>
        <path fill="#EFBE5B" d="M29.81 21.41l3.657 2.12v-4.22z"/>
        <path fill="#EFD35B" d="M33.467 19.31l3.675 2.1v-4.22zM33.467 19.31l-3.656-2.12v4.22z"/>
        <path fill="#EFAA5B" d="M33.467 23.53l3.675-2.12-3.675-2.1z"/>
        <path fill="#A67EE0" d="M37.142 30.997l-3.675-2.12v4.24z"/>
        <path fill="#A29CBF" d="M33.467 33.117l3.675 2.12v-4.24z"/>
        <path fill="#7697DC" d="M33.467 37.336l3.675-2.1-3.675-2.12zM37.803 35.275l3.384 1.964v-3.908z"/>
        <path fill="#8E88E0" d="M41.187 33.33l-3.384-1.944v3.89z"/>
        <path fill="#4B79EA" d="M41.128 37.881l-3.675-2.12v4.24z"/>
        <path fill="#739DF9" d="M33.797 37.881l3.656 2.12v-4.24z"/>
        <path fill="#73AFF9" d="M37.453 40l3.675 2.12v-4.239z"/>
        <path fill="#3CD38E" d="M29.15 30.997l-3.676-2.12v4.24z"/>
        <path fill="#91C99D" d="M21.819 30.997l3.655 2.12v-4.24z"/>
        <path fill="#62B77A" d="M21.819 35.236l3.655 2.1v-4.22z"/>
        <path fill="#C7E15C" d="M25.474 33.117l3.676 2.12v-4.24z"/>
        <path fill="#3CBA9C" d="M25.474 33.117l-3.655-2.12v4.24z"/>
        <path fill="#3CA1AA" d="M25.474 37.336l3.676-2.1-3.676-2.12zM25.163 37.881l-3.675-2.12v4.24z"/>
        <path fill="#3C6EC5" d="M17.832 37.881l3.656 2.12v-4.24z"/>
        <path fill="#7378C2" d="M17.832 42.12l3.656 2.12V40z"/>
        <path fill="#3CD38E" d="M21.488 40l3.675 2.12v-4.239z"/>
        <path fill="#307F8F" d="M21.488 40l-3.656-2.119v4.24z"/>
        <path fill="#2F64B0" d="M21.488 44.24l3.675-2.12L21.488 40z"/>
        <path fill="#3CA1AA" d="M17.774 33.272l3.383 1.964v-3.908z"/>
        <path fill="#319A6F" d="M17.774 37.18l3.383-1.944-3.383-1.964z"/>
        <path fill="#3C87B7" d="M25.844 37.881l3.325 1.925v-3.85z"/>
        <path fill="#62B77A" d="M25.844 41.75l3.325-1.944-3.325-1.925z"/>
        <path fill="#4B79EA" d="M17.676 46.593l3.384-1.945-3.384-1.964z"/>
        <path fill="#A587BA" d="M21.527 21.974l3.656 2.1-3.656 2.12z"/>
        <path fill="#CE8091" d="M21.527 26.194l-3.675-2.12 3.675-2.1z"/>
        <path fill="#E27D7D" d="M17.852 28.313v-4.239l3.675 2.12z"/>
        <path fill="#E28A7D" d="M17.463 23.51l-3.365-1.944 3.365-1.945z"/>
        <path fill="#E27D7D" d="M17.463 19.621l3.344 1.945-3.344 1.944z"/>
        <path fill="#CE8091" d="M13.515 21.974l3.656 2.1-3.656 2.12z"/>
        <path fill="#A67EE0" d="M17.17 28.313l-3.655-2.12 3.656-2.119z"/>
        <path fill="#D29097" d="M13.515 26.194l-3.675-2.12 3.675-2.1z"/>
        <path fill="#6ACC7D" d="M25.474 28.897l-3.655 2.12v4.22l3.655-2.12z"/>
        <path fill="#38C67F" d="M25.474 28.897l3.656 2.12v4.22l-3.656-2.12z"/>
        <path fill="#3CA1AA" d="M21.819 35.236l3.655 2.12 3.656-2.12-3.656-2.12z"/>
        <path fill="#73F99C" d="M21.819 31.017l3.655-2.12 3.676 2.12-3.676 2.1z" opacity=".6"/>
        <path fill="#3CD38E" d="M29.13 31.017l-3.656 2.1v4.239l3.656-2.12z" opacity=".6"/>
        <path fill="#29B291" d="M21.819 31.017v4.22l3.655 2.119v-4.24z" opacity=".6"/>
        <path fill="#399EB5" d="M21.488 35.78l-3.656 2.101v4.24L21.488 40z"/>
        <path fill="#4B79EA" d="M21.488 35.78l3.656 2.101v4.24L21.488 40z"/>
        <path fill="#2F64B0" d="M17.832 42.12l3.656 2.1 3.656-2.1L21.488 40z"/>
        <path fill="#4FE0D5" d="M17.832 37.9l3.656-2.12 3.656 2.12-3.656 2.1z" opacity=".5"/>
        <path fill="#25A5E5" d="M25.144 37.9L21.488 40v4.22l3.656-2.1z" opacity=".5"/>
        <path fill="#3C6EC5" d="M17.832 37.9v4.22l3.656 2.1V40z" opacity=".5"/>
        <path fill="#FF8380" d="M29.46 22.013l-3.674 2.1v4.24l3.675-2.12z"/>
        <path fill="#ED5858" d="M29.46 22.013l3.657 2.1v4.24l-3.656-2.12z"/>
        <path fill="#E02F27" d="M25.786 28.352l3.675 2.1 3.656-2.1-3.656-2.12z"/>
        <path fill="#FACB73" d="M25.786 24.113l3.675-2.1 3.656 2.1-3.656 2.12z" opacity=".5"/>
        <path fill="#FFA75F" d="M33.117 24.113l-3.656 2.12v4.22l3.656-2.1z" opacity=".5"/>
        <path fill="#FF6845" d="M25.805 24.113v4.24l3.656 2.1v-4.22z" opacity=".5"/>
        <path fill="#F9E698" d="M33.467 15.09l-3.656 2.1v4.24l3.675-2.12z"/>
        <path fill="#F4CE90" d="M33.467 15.09l3.675 2.1v4.24l-3.675-2.12z"/>
        <path fill="#FFAF3B" d="M29.81 21.43l3.657 2.1 3.675-2.1-3.656-2.12z"/>
        <path fill="#F9EDBD" d="M29.81 17.19l3.657-2.1 3.675 2.1-3.675 2.12z" opacity=".5"/>
        <path fill="#FFCB80" d="M37.142 17.19l-3.675 2.12v4.22l3.675-2.1z" opacity=".5"/>
        <path fill="#FFB95C" d="M29.81 17.19v4.24l3.657 2.1v-4.22z" opacity=".5"/>
        <path fill="#7F8ADB" d="M37.142 30.997l-3.675-2.12v4.24z"/>
        <path fill="#AF92F6" d="M33.467 33.117l3.675 2.12v-4.24z"/>
        <path fill="#7E74E9" d="M33.467 37.336l3.675-2.1-3.675-2.12z"/>
        <path fill="#8D79E5" d="M37.803 35.275l3.384 1.964v-3.908z"/>
        <path fill="#A98DF5" d="M41.187 33.33l-3.384-1.944v3.89z"/>
        <path fill="#7764E9" d="M41.128 37.881l-3.675-2.12v4.24z"/>
        <path fill="#6259EB" d="M33.797 37.881l3.656 2.12v-4.24z"/>
        <path fill="#7688F4" d="M37.453 40l3.675 2.12v-4.239z"/>
        <path fill="#3FC49A" d="M17.774 33.272l3.383 1.964v-3.908z"/>
        <path fill="#339996" d="M17.774 37.18l3.383-1.944-3.383-1.964z"/>
        <path fill="#46D3C2" d="M25.844 37.881l3.325 1.925v-3.85z"/>
        <path fill="#28BDD1" d="M25.844 41.75l3.325-1.944-3.325-1.925z"/>
        <path fill="#BA7B8E" d="M21.527 21.974l3.656 2.1-3.656 2.12z"/>
        <path fill="#E58299" d="M21.527 26.194l-3.675-2.12 3.675-2.1z"/>
        <path fill="#D87A8E" d="M17.852 28.313v-4.239l3.675 2.12z"/>
        <path fill="#F6B0BF" d="M17.463 23.51l-3.365-1.944 3.365-1.945z"/>
        <path fill="#F699A4" d="M17.463 19.621l3.344 1.945-3.344 1.944z"/>
        <path fill="#E08CB3" d="M13.515 21.974l3.656 2.1-3.656 2.12z"/>
        <path fill="#D36E8D" d="M17.17 28.313l-3.655-2.12 3.656-2.119z"/>
        <path fill="#D1717F" d="M13.515 26.194l-3.675-2.12 3.675-2.1z"/>
    </g>
</svg>
