<svg xmlns="http://www.w3.org/2000/svg" width="70" height="78" viewBox="0 0 70 78">
    <g fill="none" fill-rule="nonzero">
        <path fill="#FFF" d="M64.923 22.941L34.91 5.43 4.897 22.941V57.94L34.91 75.425 64.923 57.94v-.025z"/>
        <path fill="#AEAECE" d="M34.91 5.43L4.897 22.94v34.973l30.038-17.487z" opacity=".05"/>
        <path fill="#AEAECE" d="M34.91 5.43L64.923 22.94v34.973L34.91 40.402z" opacity=".1"/>
        <path fill="#AEAECE" d="M4.897 57.94L34.91 75.424 64.923 57.94 34.935 40.427z" opacity=".15"/>
        <path fill="#AEAECE" d="M4.897 17.486L34.91 0l30.013 17.486L34.91 34.998zM69.82 25.414L39.807 42.9v34.998L69.82 60.412z" opacity=".1"/>
        <path fill="#AEAECE" d="M0 25.414v34.998l30.013 17.486V42.9z" opacity=".15"/>
        <path fill="#EF955B" d="M48.213 22.533l-4.771-2.778v5.557z"/>
        <path fill="#EDB883" d="M38.696 22.533l4.746 2.779v-5.557z"/>
        <path fill="#EFBE5B" d="M38.696 28.065l4.746 2.778v-5.531z"/>
        <path fill="#EFD35B" d="M43.442 25.312l4.77 2.753v-5.532zM43.442 25.312l-4.746-2.779v5.532z"/>
        <path fill="#EFAA5B" d="M43.442 30.843l4.77-2.778-4.77-2.753z"/>
        <path fill="#A67EE0" d="M48.213 40.631l-4.771-2.778v5.557z"/>
        <path fill="#A29CBF" d="M43.442 43.41l4.77 2.778v-5.557z"/>
        <path fill="#7697DC" d="M43.442 48.941l4.77-2.753-4.77-2.778zM49.071 46.24l4.392 2.574V43.69z"/>
        <path fill="#8E88E0" d="M53.463 43.69l-4.392-2.549v5.098z"/>
        <path fill="#4B79EA" d="M53.387 49.655l-4.77-2.779v5.557z"/>
        <path fill="#739DF9" d="M43.871 49.655l4.746 2.778v-5.557z"/>
        <path fill="#73AFF9" d="M48.617 52.433l4.77 2.779v-5.557z"/>
        <path fill="#3CD38E" d="M37.838 40.631l-4.77-2.778v5.557z"/>
        <path fill="#91C99D" d="M28.322 40.631l4.745 2.779v-5.557z"/>
        <path fill="#62B77A" d="M28.322 46.188l4.745 2.753V43.41z"/>
        <path fill="#C7E15C" d="M33.067 43.41l4.771 2.778v-5.557z"/>
        <path fill="#3CBA9C" d="M33.067 43.41l-4.745-2.779v5.557z"/>
        <path fill="#3CA1AA" d="M33.067 48.941l4.771-2.753-4.77-2.778zM32.664 49.655l-4.771-2.779v5.557z"/>
        <path fill="#3C6EC5" d="M23.147 49.655l4.746 2.778v-5.557z"/>
        <path fill="#7378C2" d="M23.147 55.212l4.746 2.778v-5.557z"/>
        <path fill="#3CD38E" d="M27.893 52.433l4.77 2.779v-5.557z"/>
        <path fill="#307F8F" d="M27.893 52.433l-4.746-2.778v5.557z"/>
        <path fill="#2F64B0" d="M27.893 57.99l4.77-2.778-4.77-2.779z"/>
        <path fill="#3CA1AA" d="M23.071 43.614l4.393 2.574v-5.123z"/>
        <path fill="#319A6F" d="M23.071 48.737l4.393-2.549-4.393-2.574z"/>
        <path fill="#3C87B7" d="M33.547 49.655l4.316 2.523v-5.047z"/>
        <path fill="#62B77A" d="M33.547 54.727l4.316-2.549-4.316-2.523z"/>
        <path fill="#4B79EA" d="M22.945 61.075l4.392-2.55-4.392-2.574z"/>
        <path fill="#A587BA" d="M27.943 28.804l4.746 2.753-4.746 2.778z"/>
        <path fill="#CE8091" d="M27.943 34.335l-4.77-2.778 4.77-2.753z"/>
        <path fill="#E27D7D" d="M23.172 37.114v-5.557l4.771 2.778z"/>
        <path fill="#E28A7D" d="M22.668 30.818l-4.367-2.55 4.367-2.548z"/>
        <path fill="#E27D7D" d="M22.668 25.72l4.341 2.549-4.341 2.549z"/>
        <path fill="#CE8091" d="M17.543 28.804l4.746 2.753-4.746 2.778z"/>
        <path fill="#A67EE0" d="M22.289 37.114l-4.746-2.779 4.746-2.778z"/>
        <path fill="#D29097" d="M17.543 34.335l-4.77-2.778 4.77-2.753z"/>
        <path fill="#6ACC7D" d="M33.067 37.878l-4.745 2.779v5.531l4.745-2.778z"/>
        <path fill="#38C67F" d="M33.067 37.878l4.746 2.779v5.531l-4.746-2.778z"/>
        <path fill="#3CA1AA" d="M28.322 46.188l4.745 2.779 4.746-2.779-4.746-2.778z"/>
        <path fill="#73F99C" d="M28.322 40.657l4.745-2.779 4.771 2.779-4.77 2.753z" opacity=".6"/>
        <path fill="#3CD38E" d="M37.813 40.657l-4.746 2.753v5.557l4.746-2.779z" opacity=".6"/>
        <path fill="#29B291" d="M28.322 40.657v5.531l4.745 2.779V43.41z" opacity=".6"/>
        <path fill="#399EB5" d="M27.893 46.902l-4.746 2.753v5.557l4.746-2.779z"/>
        <path fill="#4B79EA" d="M27.893 46.902l4.745 2.753v5.557l-4.745-2.779z"/>
        <path fill="#2F64B0" d="M23.147 55.212l4.746 2.753 4.745-2.753-4.745-2.779z"/>
        <path fill="#4FE0D5" d="M23.147 49.68l4.746-2.778 4.745 2.778-4.745 2.753z" opacity=".5"/>
        <path fill="#25A5E5" d="M32.638 49.68l-4.745 2.753v5.532l4.745-2.753z" opacity=".5"/>
        <path fill="#3C6EC5" d="M23.147 49.68v5.532l4.746 2.753v-5.532z" opacity=".5"/>
        <path fill="#FF8380" d="M38.242 28.855l-4.77 2.753v5.557l4.77-2.779z"/>
        <path fill="#ED5858" d="M38.242 28.855l4.746 2.753v5.557l-4.746-2.779z"/>
        <path fill="#E02F27" d="M33.471 37.165l4.771 2.753 4.746-2.753-4.746-2.779z"/>
        <path fill="#FACB73" d="M33.471 31.608l4.771-2.753 4.746 2.753-4.746 2.778z" opacity=".5"/>
        <path fill="#FFA75F" d="M42.988 31.608l-4.746 2.778v5.532l4.746-2.753z" opacity=".5"/>
        <path fill="#FF6845" d="M33.497 31.608v5.557l4.745 2.753v-5.532z" opacity=".5"/>
        <path fill="#F9E698" d="M43.442 19.78l-4.746 2.753v5.557l4.771-2.778z"/>
        <path fill="#F4CE90" d="M43.442 19.78l4.77 2.753v5.557l-4.77-2.778z"/>
        <path fill="#FFAF3B" d="M38.696 28.09l4.746 2.753 4.77-2.753-4.745-2.778z"/>
        <path fill="#F9EDBD" d="M38.696 22.533l4.746-2.753 4.77 2.753-4.77 2.779z" opacity=".5"/>
        <path fill="#FFCB80" d="M48.213 22.533l-4.771 2.779v5.531l4.77-2.753z" opacity=".5"/>
        <path fill="#FFB95C" d="M38.696 22.533v5.557l4.746 2.753v-5.531z" opacity=".5"/>
        <path fill="#7F8ADB" d="M48.213 40.631l-4.771-2.778v5.557z"/>
        <path fill="#AF92F6" d="M43.442 43.41l4.77 2.778v-5.557z"/>
        <path fill="#7E74E9" d="M43.442 48.941l4.77-2.753-4.77-2.778z"/>
        <path fill="#8D79E5" d="M49.071 46.24l4.392 2.574V43.69z"/>
        <path fill="#A98DF5" d="M53.463 43.69l-4.392-2.549v5.098z"/>
        <path fill="#7764E9" d="M53.387 49.655l-4.77-2.779v5.557z"/>
        <path fill="#6259EB" d="M43.871 49.655l4.746 2.778v-5.557z"/>
        <path fill="#7688F4" d="M48.617 52.433l4.77 2.779v-5.557z"/>
        <path fill="#3FC49A" d="M23.071 43.614l4.393 2.574v-5.123z"/>
        <path fill="#339996" d="M23.071 48.737l4.393-2.549-4.393-2.574z"/>
        <path fill="#46D3C2" d="M33.547 49.655l4.316 2.523v-5.047z"/>
        <path fill="#28BDD1" d="M33.547 54.727l4.316-2.549-4.316-2.523z"/>
        <path fill="#BA7B8E" d="M27.943 28.804l4.746 2.753-4.746 2.778z"/>
        <path fill="#E58299" d="M27.943 34.335l-4.77-2.778 4.77-2.753z"/>
        <path fill="#D87A8E" d="M23.172 37.114v-5.557l4.771 2.778z"/>
        <path fill="#F6B0BF" d="M22.668 30.818l-4.367-2.55 4.367-2.548z"/>
        <path fill="#F699A4" d="M22.668 25.72l4.341 2.549-4.341 2.549z"/>
        <path fill="#E08CB3" d="M17.543 28.804l4.746 2.753-4.746 2.778z"/>
        <path fill="#D36E8D" d="M22.289 37.114l-4.746-2.779 4.746-2.778z"/>
        <path fill="#D1717F" d="M17.543 34.335l-4.77-2.778 4.77-2.753z"/>
    </g>
</svg>
