<svg xmlns="http://www.w3.org/2000/svg" width="36" height="36" viewBox="0 0 36 36">
    <g fill="none" fill-rule="evenodd">
        <circle cx="18" cy="18" r="18" fill="#4B79EA"/>
        <path fill="#FFF" d="M26.1 23.21c.497 0 .9.4.9.895a.898.898 0 0 1-.9.895H9.9c-.497 0-.9-.4-.9-.895 0-.494.403-.894.9-.894zM18 8a.903.903 0 0 1 .9.895v9.475l2.97-2.952a.904.904 0 0 1 1.222.046c.332.331.353.86.047 1.215l-4.5 4.473a.903.903 0 0 1-1.27 0L12.87 16.68a.891.891 0 0 1 .047-1.215.904.904 0 0 1 1.222-.046l2.96 2.952V8.895c0-.494.404-.895.901-.895z"/>
    </g>
</svg>
