<svg xmlns="http://www.w3.org/2000/svg" width="70" height="70" viewBox="0 0 70 70">
    <path fill="#4A4A4A" fill-rule="evenodd" d="M37.228 20.94a4.653 4.653 0 0 1 4.652 4.653v32.575a4.653 4.653 0 0 1-4.652 4.653H18.613a4.653 4.653 0 0 1-4.653-4.653V25.593a4.653 4.653 0 0 1 4.653-4.653zm0 4.653H18.613v32.575h18.615V25.593zm9.305-11.633a2.328 2.328 0 0 1 2.327 2.328v37.225a2.326 2.326 0 0 1-4.653 0v-34.9h-20.94a2.326 2.326 0 1 1 0-4.653h23.266zm6.98-6.98a2.328 2.328 0 0 1 2.327 2.327v37.226a2.326 2.326 0 0 1-4.653 0v-34.9h-20.94a2.326 2.326 0 1 1 0-4.653h23.266z"/>
</svg>
