<svg xmlns="http://www.w3.org/2000/svg" width="432" height="366" viewBox="0 0 432 366">
    <g fill="none" fill-rule="evenodd" transform="translate(80 43.92)">
        <ellipse cx="136.495" cy="123.472" fill="#5BE490" fill-rule="nonzero" rx="66.873" ry="65.268"/>
        <path fill="#BEBED7" fill-rule="nonzero" stroke="#3D3D45" stroke-linecap="round" stroke-linejoin="round" stroke-width="3.054" d="M183.52 125.856c.988 28.894-18.06 54.823-46.415 63.182l10.077-5.662c28.477-8.25 47.67-34.206 46.72-63.182l-10.382 5.662z"/>
        <ellipse cx="138.632" cy="249.836" fill="#5BE490" fill-rule="nonzero" rx="25.039" ry="24.438"/>
        <path fill="#3D3D45" fill-rule="nonzero" d="M138.632 228.378c12.143 0 21.986 9.607 21.986 21.458 0 11.851-9.843 21.458-21.986 21.458-12.142 0-21.986-9.607-21.986-21.458 0-11.85 9.844-21.458 21.986-21.458m0-5.96c-15.515 0-28.093 12.275-28.093 27.418 0 15.143 12.578 27.419 28.093 27.419s28.093-12.276 28.093-27.419-12.578-27.418-28.093-27.418z"/>
        <path stroke="#3D3D45" stroke-linecap="round" stroke-linejoin="round" stroke-width="3.054" d="M129.777 251.028l7.94 6.259 10.381-13.113"/>
        <ellipse cx="243.98" cy="68.635" fill="#5BE490" fill-rule="nonzero" rx="25.039" ry="24.438"/>
        <path fill="#3D3D45" fill-rule="nonzero" d="M243.98 47.177c12.143 0 21.986 9.607 21.986 21.458 0 11.85-9.843 21.458-21.986 21.458-12.142 0-21.985-9.607-21.985-21.458 0-11.851 9.843-21.458 21.985-21.458m0-5.96c-15.515 0-28.093 12.275-28.093 27.418 0 15.143 12.578 27.418 28.093 27.418 15.516 0 28.093-12.275 28.093-27.418 0-15.143-12.577-27.419-28.093-27.419z"/>
        <path stroke="#3D3D45" stroke-linecap="round" stroke-linejoin="round" stroke-width="3.054" d="M235.125 69.827l7.94 5.96 10.381-12.815"/>
        <ellipse cx="28.093" cy="68.635" fill="#5BE490" fill-rule="nonzero" rx="25.039" ry="24.438"/>
        <path fill="#3D3D45" fill-rule="nonzero" d="M28.093 47.177c12.142 0 21.986 9.607 21.986 21.458 0 11.85-9.844 21.458-21.986 21.458-12.143 0-21.986-9.607-21.986-21.458 0-11.851 9.843-21.458 21.986-21.458m0-5.96C12.578 41.216 0 53.491 0 68.634c0 15.143 12.578 27.418 28.093 27.418s28.093-12.275 28.093-27.418c0-15.143-12.578-27.419-28.093-27.419z"/>
        <path stroke="#3D3D45" stroke-linecap="round" stroke-linejoin="round" stroke-width="3.054" d="M19.237 69.827l7.94 5.96 10.077-12.815"/>
        <path fill="#F8F6FF" fill-rule="nonzero" stroke="#3D3D45" stroke-linecap="round" stroke-linejoin="round" stroke-width="3.054" d="M91.302 75.191c0 84.939 45.803 113.847 45.803 113.847 28.356-8.36 47.403-34.288 46.415-63.182-29.62-16.391-46.415-57.221-46.415-57.221s-24.428 18.18-45.803 6.556z"/>
        <path fill="#BEBED7" fill-rule="nonzero" d="M121.837 113.34l-7.939 3.874.306 29.802 25.955 14.604 7.94-3.875v-29.802z"/>
        <path fill="#BEBED7" fill-rule="nonzero" stroke="#3D3D45" stroke-linecap="round" stroke-linejoin="round" stroke-width="3.054" d="M137.105 68.039s-24.123 19.074-45.498 8.047l11.298-5.663s13.436 5.067 44.277-8.047l-10.077 5.663z"/>
        <path fill="#BEBED7" fill-rule="nonzero" stroke="#3D3D45" stroke-linecap="round" stroke-linejoin="round" stroke-width="3.054" d="M147.182 62.972s16.795 40.83 46.72 57.222l-10.382 5.662c-29.62-16.391-46.415-57.221-46.415-57.221l10.077-5.663z"/>
        <path fill="#9BBBF9" fill-rule="nonzero" stroke="#3D3D45" stroke-linecap="round" stroke-linejoin="round" stroke-width="3.054" d="M99.241 113.935l.305 29.803 25.956 14.603V128.54z"/>
        <path fill="#4B79EA" fill-rule="nonzero" stroke="#3D3D45" stroke-linecap="round" stroke-linejoin="round" stroke-width="3.054" d="M133.441 154.467v-29.505l-26.26-14.603-7.94 3.576 26.26 14.604v29.802z"/>
        <path stroke="#3D3D45" stroke-linecap="round" stroke-linejoin="round" stroke-width="3.054" d="M109.623 113.041c0-5.662 2.748-11.623 8.55-8.643 5.802 2.98 7.023 7.749 7.023 17.286"/>
        <path fill="#3D3D45" fill-rule="nonzero" d="M112.982 134.5c.169 0 .305.133.305.297h-.305m-2.137-5.364a2.161 2.161 0 0 0-1.63.712 2.052 2.052 0 0 0-.508 1.672 6.166 6.166 0 0 0 1.222 3.278v6.259l5.19 2.682v-6.855c.611 0 1.222-.894 1.222-2.086-.301-2.405-1.782-4.517-3.97-5.662h-1.526z"/>
        <path fill="#3D3D45" fill-rule="nonzero" stroke="#3D3D45" stroke-linecap="round" stroke-linejoin="round" stroke-width="3.855" d="M83.973 44.495l-23.818.596 9.161-21.16z"/>
        <path stroke="#3D3D45" stroke-linecap="round" stroke-linejoin="round" stroke-width="9.161" d="M250.087 113.34l.306 76.592-70.232 39.936M65.041 41.514L137.105.386l71.149 39.638M96.798 230.762l-71.453-39.637-.306-77.488"/>
        <path fill="#3D3D45" fill-rule="nonzero" stroke="#3D3D45" stroke-linecap="round" stroke-linejoin="round" stroke-width="3.855" d="M92.829 213.775l10.382 20.862-23.513.298zM237.568 127.645l12.825-19.372 12.825 19.073z"/>
    </g>
</svg>
