<svg xmlns="http://www.w3.org/2000/svg" xmlns:xlink="http://www.w3.org/1999/xlink" width="432" height="375" viewBox="0 0 432 375">
    <defs>
        <path id="a" d="M.246.466h55.832V56.3H.246z"/>
        <path id="c" d="M0 .466h55.832V56.3H0z"/>
        <path id="e" d="M1.325 22.68S34.493 91.58 53.717 105c18.162 12.71 31.395-12.39 28.99-15.153-2.135-2.973-14.416-18.442-14.416-18.442s-1.868-3.49-5.075-.66c-3.204 2.836-5.872 4.314-5.872 4.314s-.803.63-4.543-3.255c-2.93-2.958-19.76-28.818-21.363-32.834-2.136-5.148-1.068-5.678-1.068-5.678s1.872-2.4 5.343-4.822c3.74-2.322 1.336-5.082 1.336-5.082S27.699 5.604 25.831 2.111C25.368 1.32 23.308.79 20.55.79 12.214.79-2.488 5.627 1.325 22.678z"/>
        <path id="g" d="M1.325 22.68S34.493 91.58 53.717 105c18.162 12.71 31.395-12.39 28.99-15.153-2.135-2.973-14.416-18.442-14.416-18.442s-1.868-3.49-5.075-.66c-3.204 2.836-5.872 4.314-5.872 4.314s-.803.63-4.543-3.255c-2.93-2.958-19.76-28.818-21.363-32.834-2.136-5.148-1.068-5.678-1.068-5.678s1.872-2.4 5.343-4.822c3.74-2.322 1.336-5.082 1.336-5.082S27.699 5.604 25.831 2.111C25.368 1.32 23.308.79 20.55.79 12.214.79-2.488 5.627 1.325 22.678z"/>
        <path id="i" d="M1.168 20.834l-.003-.003C6.502 45.176 31.075 82.936 50.3 96.354c18.162 12.71 22.97-4.11 20.566-6.87-2.14-2.976-14.423-18.445-14.423-18.445s-1.865-3.487-5.072-.66c-3.204 2.833-5.875 4.314-5.875 4.314s-.8.633-4.54-3.252c-2.933-2.96-19.76-28.824-21.363-32.837-2.139-5.145-1.071-5.678-1.071-5.678s1.874-2.398 5.343-4.82c3.74-2.324 1.336-5.087 1.336-5.087S15.852 5.241 13.984 1.748C13.454.847 11.8.168 9.807.168c-5.06 0-12.28 4.382-8.639 20.666z"/>
        <path id="k" d="M1.168 20.834l-.003-.003C6.502 45.176 31.075 82.936 50.3 96.354c18.162 12.71 22.97-4.11 20.566-6.87-2.14-2.976-14.423-18.445-14.423-18.445s-1.865-3.487-5.072-.66c-3.204 2.833-5.875 4.314-5.875 4.314s-.8.633-4.54-3.252c-2.933-2.96-19.76-28.824-21.363-32.837-2.139-5.145-1.071-5.678-1.071-5.678s1.874-2.398 5.343-4.82c3.74-2.324 1.336-5.087 1.336-5.087S15.852 5.241 13.984 1.748C13.454.847 11.8.168 9.807.168c-5.06 0-12.28 4.382-8.639 20.666z"/>
    </defs>
    <g fill="none" fill-rule="evenodd">
        <path fill="#5BE490" d="M282.746 171.261c0 36.805-29.837 66.638-66.641 66.638-36.805 0-66.642-29.833-66.642-66.638 0-36.804 29.837-66.641 66.642-66.641 36.804 0 66.641 29.837 66.641 66.641M218.178 325.078c-13.717 0-24.874-11.157-24.874-24.874 0-13.717 11.157-24.874 24.874-24.874 13.716 0 24.874 11.157 24.874 24.874 0 13.717-11.158 24.874-24.874 24.874"/>
        <path fill="#3D3D45" d="M218.178 272.288c-15.393 0-27.917 12.524-27.917 27.917 0 15.393 12.524 27.917 27.917 27.917 15.393 0 27.917-12.524 27.917-27.917 0-15.393-12.524-27.917-27.917-27.917m0 6.086c12.058 0 21.831 9.776 21.831 21.831 0 12.058-9.773 21.832-21.831 21.832-12.059 0-21.832-9.774-21.832-21.832 0-12.055 9.773-21.831 21.832-21.831"/>
        <path stroke="#3D3D45" stroke-linecap="round" stroke-linejoin="round" stroke-width="3.043" d="M209.285 301.349l7.941 6.338 10.29-13.2"/>
        <path fill="#5BE490" d="M323.18 139.99c-13.716 0-24.873-11.157-24.873-24.874 0-13.716 11.157-24.874 24.874-24.874 13.716 0 24.874 11.158 24.874 24.874 0 13.717-11.158 24.874-24.874 24.874"/>
        <g transform="translate(295.018 86.734)">
            <mask id="b" fill="#fff">
                <use xlink:href="#a"/>
            </mask>
            <path fill="#3D3D45" d="M28.163.466C12.77.466.246 12.99.246 28.383.246 43.773 12.77 56.3 28.163 56.3c15.393 0 27.917-12.527 27.917-27.917C56.08 12.99 43.556.466 28.163.466m0 6.086c12.058 0 21.831 9.773 21.831 21.831s-9.773 21.831-21.83 21.831c-12.06 0-21.832-9.773-21.832-21.83 0-12.06 9.773-21.832 21.831-21.832" mask="url(#b)"/>
        </g>
        <path stroke="#3D3D45" stroke-linecap="round" stroke-linejoin="round" stroke-width="3.043" d="M314.288 116.258l7.941 6.34 10.287-13.198"/>
        <path fill="#5BE490" d="M107.916 139.99c-13.717 0-24.875-11.157-24.875-24.874 0-13.716 11.158-24.874 24.875-24.874 13.716 0 24.874 11.158 24.874 24.874 0 13.717-11.158 24.874-24.874 24.874"/>
        <g transform="translate(80 86.734)">
            <mask id="d" fill="#fff">
                <use xlink:href="#c"/>
            </mask>
            <path fill="#3D3D45" d="M27.916.466C12.523.466-.001 12.99-.001 28.383c0 15.39 12.524 27.917 27.917 27.917 15.393 0 27.916-12.527 27.916-27.917C55.832 12.99 43.31.466 27.916.466m0 6.086c12.058 0 21.831 9.773 21.831 21.831s-9.773 21.831-21.831 21.831c-12.059 0-21.832-9.773-21.832-21.83 0-12.06 9.773-21.832 21.832-21.832" mask="url(#d)"/>
        </g>
        <path stroke="#3D3D45" stroke-linecap="round" stroke-linejoin="round" stroke-width="3.043" d="M99.022 116.258l7.942 6.34 10.29-13.198"/>
        <path fill="#3D3D45" d="M163.579 90.671l-23.648.368 9.228-21.384z"/>
        <path stroke="#3D3D45" stroke-linecap="round" stroke-linejoin="round" stroke-width="3.843" d="M163.579 90.671l-23.648.368 9.228-21.384z"/>
        <path stroke="#3D3D45" stroke-linecap="round" stroke-linejoin="round" stroke-width="9.128" d="M329.192 160.891l.347 78.234-69.903 40.772M144.808 87.385l71.796-41.88 70.798 40.459M176.352 280.67l-70.959-40.55-.352-78.927"/>
        <path fill="#3D3D45" d="M172.62 263.267l10.087 21.394-23.289.407z"/>
        <path stroke="#3D3D45" stroke-linecap="round" stroke-linejoin="round" stroke-width="3.843" d="M172.62 263.267l10.087 21.394-23.289.407z"/>
        <path fill="#3D3D45" d="M316.742 175.41l12.798-19.894 12.688 19.534z"/>
        <path stroke="#3D3D45" stroke-linecap="round" stroke-linejoin="round" stroke-width="3.843" d="M316.742 175.41l12.798-19.894 12.688 19.534z"/>
        <path fill="#BEBED7" d="M174.635 141.871c-5.075-22.692 22.635-23.754 24.506-20.572 1.868 3.496 11.215 21.275 11.215 21.275s2.404 2.763-1.332 5.084c-3.472 2.425-5.343 4.823-5.343 4.823s-1.071.532 1.068 5.678c1.603 4.016 18.43 29.876 21.363 32.837 3.736 3.882 4.54 3.252 4.54 3.252s2.67-1.479 5.875-4.311c3.207-2.833 5.075.66 5.075.66s12.28 15.47 14.416 18.439c2.404 2.763-10.832 27.862-28.99 15.155-19.227-13.418-52.393-82.32-52.393-82.32"/>
        <g>
            <g transform="translate(173.31 119.19)">
                <mask id="f" fill="#fff">
                    <use xlink:href="#e"/>
                </mask>
                <path fill="#BEBED7" d="M6.861 83.29l81.587 30.603V18.89L6.861-11.713z" mask="url(#f)"/>
            </g>
            <g transform="translate(173.31 119.19)">
                <mask id="h" fill="#fff">
                    <use xlink:href="#g"/>
                </mask>
                <path stroke="#3D3D45" stroke-linecap="round" stroke-linejoin="round" stroke-width="3.043" d="M6.861 83.29l81.587 30.603V18.89L6.861-11.713z" mask="url(#h)"/>
            </g>
        </g>
        <g>
            <path stroke="#3D3D45" stroke-linecap="round" stroke-linejoin="round" stroke-width="3.043" d="M174.635 141.871c-5.075-22.692 22.635-23.754 24.506-20.572 1.868 3.496 11.215 21.275 11.215 21.275s2.404 2.763-1.332 5.084c-3.472 2.425-5.343 4.823-5.343 4.823s-1.071.532 1.068 5.678c1.603 4.016 18.43 29.876 21.363 32.837 3.736 3.882 4.54 3.252 4.54 3.252s2.67-1.479 5.875-4.311c3.207-2.833 5.075.66 5.075.66s12.28 15.47 14.416 18.439c2.404 2.763-10.832 27.862-28.99 15.155-19.227-13.418-52.393-82.32-52.393-82.32z"/>
            <path fill="#F8F6FF" d="M175.49 147.125c-5.075-22.696 10.948-22.273 12.817-19.087 1.868 3.493 11.215 21.271 11.215 21.271s2.404 2.763-1.333 5.088c-3.471 2.422-5.343 4.82-5.343 4.82s-1.068.529 1.071 5.677c1.6 4.013 18.427 29.873 21.36 32.837 3.74 3.882 4.54 3.25 4.54 3.25s2.671-1.48 5.875-4.312c3.207-2.827 5.076.66 5.076.66s12.28 15.47 14.419 18.445c2.404 2.76-2.404 19.577-20.566 6.868-19.224-13.419-43.793-51.179-49.133-75.523l.003.006z"/>
        </g>
        <g>
            <g transform="translate(174.324 126.29)">
                <mask id="j" fill="#fff">
                    <use xlink:href="#i"/>
                </mask>
                <path fill="#F8F6FF" d="M-4.987 82.925l81.587 30.6V18.524l-81.587-30.6z" mask="url(#j)"/>
            </g>
            <g transform="translate(174.324 126.29)">
                <mask id="l" fill="#fff">
                    <use xlink:href="#k"/>
                </mask>
                <path stroke="#3D3D45" stroke-linecap="round" stroke-linejoin="round" stroke-width="3.043" d="M-4.987 82.925l81.587 30.6V18.524l-81.587-30.6z" mask="url(#l)"/>
            </g>
        </g>
        <g stroke="#3D3D45" stroke-linecap="round" stroke-linejoin="round" stroke-width="3.043">
            <path d="M175.49 147.125c-5.075-22.696 10.948-22.273 12.817-19.087 1.868 3.493 11.215 21.271 11.215 21.271s2.404 2.763-1.333 5.088c-3.471 2.422-5.343 4.82-5.343 4.82s-1.068.529 1.071 5.677c1.6 4.013 18.427 29.873 21.36 32.837 3.74 3.882 4.54 3.25 4.54 3.25s2.671-1.48 5.875-4.312c3.207-2.827 5.076.66 5.076.66s12.28 15.47 14.419 18.445c2.404 2.76-2.404 19.577-20.566 6.868-19.224-13.419-43.793-51.179-49.133-75.523l.003.006zM188.307 128.036l10.835-6.736M198.189 154.395l10.836-6.736M225.693 196.67l10.835-6.734M245.188 215.772l10.832-6.736"/>
        </g>
    </g>
</svg>
