<svg xmlns="http://www.w3.org/2000/svg" xmlns:xlink="http://www.w3.org/1999/xlink" width="432" height="375" viewBox="0 0 432 375">
    <defs>
        <path id="b" d="M220.368 127.637c0 60.14-48.753 108.893-108.89 108.893-60.14 0-108.897-48.752-108.897-108.893 0-60.14 48.756-108.893 108.897-108.893 60.137 0 108.89 48.752 108.89 108.893"/>
        <filter id="a" width="254.3%" height="254.3%" x="-77.1%" y="-77.1%" filterUnits="objectBoundingBox">
            <feOffset in="SourceAlpha" result="shadowOffsetOuter1"/>
            <feGaussianBlur in="shadowOffsetOuter1" result="shadowBlurOuter1" stdDeviation="56"/>
            <feColorMatrix in="shadowBlurOuter1" values="0 0 0 0 0.294117647 0 0 0 0 0.474509804 0 0 0 0 0.917647059 0 0 0 0.1 0"/>
        </filter>
    </defs>
    <g fill="none" fill-rule="evenodd">
        <g transform="translate(104 67)">
            <use fill="#000" filter="url(#a)" xlink:href="#b"/>
            <use fill="#FFF" xlink:href="#b"/>
        </g>
        <path stroke="#3D3D45" stroke-linecap="round" stroke-linejoin="round" stroke-width="1.818" d="M289.577 159.611l-13.363-7.6a8.006 8.006 0 0 0-7.941-.006l-44.71 25.314"/>
        <path stroke="#FFB44B" stroke-dasharray="3.636074141611027,5.45411109119528" stroke-linecap="round" stroke-linejoin="round" stroke-width="1.818" d="M234.833 201.586l60.97 34.56c3.24 1.837 7.257-.516 7.243-4.239l-.226-63.617M225.85 225.17v25.308a7.339 7.339 0 0 0 3.744 6.392l42.786 23.976M193.448 92.103l-51.589 30.328c-3.96 2.327-4.025 8.036-.116 10.45l59.806 37.088M123.28 189.101l.054 42.775c.007 3.192 3.418 5.225 6.228 3.705l65.537-35.4"/>
        <path fill="#CFCFE5" d="M198.103 67.353l-4.654 2.341 37.837 64.864 4.654-2.338V89.133z"/>
        <path stroke="#3D3D45" stroke-linecap="round" stroke-linejoin="round" stroke-width="1.818" d="M198.103 67.353l-4.654 2.341 37.837 64.864 4.654-2.338V89.133z"/>
        <path fill="#F8F6FF" d="M193.448 69.693v43.357l37.837 21.51V91.474z"/>
        <path stroke="#3D3D45" stroke-linecap="round" stroke-linejoin="round" stroke-width="1.818" d="M193.448 69.693v43.357l37.837 21.51V91.474z"/>
        <path fill="#CFCFE5" d="M290.159 132.97l-4.65 2.34 37.836 64.868L328 197.84v-43.087z"/>
        <path stroke="#3D3D45" stroke-linecap="round" stroke-linejoin="round" stroke-width="1.818" d="M290.159 132.97l-4.65 2.34 37.836 64.868L328 197.84v-43.087z"/>
        <path fill="#F8F6FF" d="M285.507 135.31v43.36l37.837 21.51v-43.087z"/>
        <path stroke="#3D3D45" stroke-linecap="round" stroke-linejoin="round" stroke-width="1.818" d="M285.507 135.31v43.36l37.837 21.51v-43.087z"/>
        <path fill="#CFCFE5" d="M252.95 239.7l-4.655 2.342 37.837 64.868 4.654-2.338V261.48z"/>
        <path stroke="#3D3D45" stroke-linecap="round" stroke-linejoin="round" stroke-width="1.818" d="M252.95 239.7l-4.655 2.342 37.837 64.868 4.654-2.338V261.48z"/>
        <path fill="#F8F6FF" d="M248.294 242.04v43.357l37.837 21.515v-43.088z"/>
        <path stroke="#3D3D45" stroke-linecap="round" stroke-linejoin="round" stroke-width="1.818" d="M248.294 242.04v43.357l37.837 21.515v-43.088z"/>
        <path fill="#CFCFE5" d="M144.062 239.7l-4.654 2.342 37.837 64.868 4.654-2.338V261.48z"/>
        <path stroke="#3D3D45" stroke-linecap="round" stroke-linejoin="round" stroke-width="1.818" d="M144.062 239.7l-4.654 2.342 37.837 64.868 4.654-2.338V261.48z"/>
        <path fill="#F8F6FF" d="M139.407 242.04v43.357l37.837 21.515v-43.088z"/>
        <path stroke="#3D3D45" stroke-linecap="round" stroke-linejoin="round" stroke-width="1.818" d="M139.407 242.04v43.357l37.837 21.515v-43.088z"/>
        <path fill="#CFCFE5" d="M109.562 132.97l-4.65 2.34 37.837 64.868 4.65-2.338v-43.087z"/>
        <path stroke="#3D3D45" stroke-linecap="round" stroke-linejoin="round" stroke-width="1.818" d="M109.562 132.97l-4.65 2.34 37.837 64.868 4.65-2.338v-43.087z"/>
        <path fill="#F8F6FF" d="M104.91 135.31v43.36l37.837 21.51v-43.087z"/>
        <path stroke="#3D3D45" stroke-linecap="round" stroke-linejoin="round" stroke-width="1.818" d="M104.91 135.31v43.36l37.837 21.51v-43.087z"/>
        <path stroke="#FFB44B" stroke-dasharray="3.636074141611027,5.45411109119528" stroke-linecap="round" stroke-linejoin="round" stroke-width="1.818" d="M206.873 223.125l.128 68.242c0 4.767-5.16 7.745-9.29 5.36l-17.636-10.2"/>
        <path stroke="#3D3D45" stroke-linecap="round" stroke-linejoin="round" stroke-width="1.818" d="M142.749 178.775L172.346 195a6.166 6.166 0 0 0 6.003-.043l16.748-9.501M216.063 169.51l51.12-29.277c2.32-1.327 2.345-4.665.047-6.032l-35.943-21.347M234.268 214.18l81.834 46.892c3.228 1.847 3.254 6.497.05 8.388l-30.019 17.537M160.72 254.273v-16.588a6.5 6.5 0 0 1 3.221-5.614l34.674-20.416"/>
        <path fill="#FFF" d="M209.977 110.694l-6.207-3.425V96.645l6.207 3.429z"/>
        <path stroke="#3D3D45" stroke-linecap="round" stroke-linejoin="round" stroke-width="1.818" d="M209.977 110.694l-6.207-3.425V96.645l6.207 3.429z"/>
        <path fill="#FFF" d="M214.827 114.87l-7.956-4.392V96.865l7.956 4.392z"/>
        <path stroke="#3D3D45" stroke-linecap="round" stroke-linejoin="round" stroke-width="1.818" d="M214.827 114.87l-7.956-4.392V96.865l7.956 4.392z"/>
        <path fill="#FFF" d="M220.771 119.842l-9.922-5.483V97.374l9.922 5.484z"/>
        <path stroke="#3D3D45" stroke-linecap="round" stroke-linejoin="round" stroke-width="1.818" d="M220.771 119.842l-9.922-5.483V97.374l9.922 5.484z"/>
        <g>
            <path stroke="#3D3D45" stroke-linecap="round" stroke-linejoin="round" stroke-width="1.818" d="M203.77 89.706s10.628 9.537 17.002 3.443"/>
            <path fill="#3D3D45" d="M218.442 91.403l3.785 1.01-.723 4.117z"/>
            <path stroke="#3D3D45" stroke-linecap="round" stroke-linejoin="round" stroke-width="1.03" d="M218.442 91.403l3.785 1.01-.723 4.117z"/>
            <path fill="#3D3D45" d="M307.49 170.154c.008 2.803 2 5.985 4.458 7.108.386.171.698-.043.706-.483 0-.211-.077-.451-.208-.662a1.223 1.223 0 0 0-.498-.462c-1.534-.727-2.814-2.632-2.981-4.447-.168-1.818.825-2.978 2.32-2.709.37.066.607-.24.53-.701-.414-2.447-2.258-4.822-4.265-5.495-2.01-.683-3.541.553-3.545 2.855 0 .214.073.45.207.665.131.207.313.375.495.462.189.084.367.08.502-.007.13-.095.207-.266.207-.477-.011-1.345.785-2.156 1.93-1.949 1.142.204 2.324 1.368 2.851 2.804-1.658.058-2.723 1.436-2.709 3.498"/>
            <path fill="#3D3D45" d="M308.378 156.98c-2.181-.985-4.268-.95-5.81.109-1.542 1.054-2.41 3.047-2.415 5.53-.003 1.808.459 3.793 1.331 5.702l5.356 11.879v.004c.844 1.876 2.45 3.287 3.942 3.45 1.487.167 2.505-.953 2.48-2.738 0-.443-.317-.949-.71-1.127-.389-.175-.701.04-.701.484.003 1.058-.6 1.716-1.487 1.61-.888-.105-1.84-.945-2.338-2.061l-5.375-11.774c-.916-1.989-1.298-4.061-1.072-5.836.222-1.767 1.036-3.112 2.29-3.781 1.251-.662 2.855-.611 4.51.156 2.086.935 4.035 3.04 5.148 5.56.233.461.673.738.985.629.258-.128.328-.502.171-.906-1.356-3.105-3.734-5.708-6.305-6.89M298.404 166.922c.196.088.378.077.509-.025.134-.087.207-.258.207-.473 0-.207-.073-.447-.207-.654-.967-1.506-1.524-3.218-1.553-4.767-.025-1.545.484-2.796 1.415-3.484.145-.083.229-.258.229-.48a1.257 1.257 0 0 0-.218-.694c-.142-.218-.331-.389-.528-.462-.196-.076-.378-.054-.501.062-1.193.876-1.844 2.473-1.808 4.45.037 1.975.75 4.168 1.99 6.091.127.196.29.353.465.436"/>
            <path fill="#3D3D45" d="M296.32 154.292c.141-.08.225-.254.228-.476a1.261 1.261 0 0 0-.214-.691 1.167 1.167 0 0 0-.531-.465c-.193-.077-.378-.055-.502.061-1.632 1.178-2.541 3.331-2.541 6.007-.008 2.604.916 5.523 2.57 8.083.124.207.298.367.477.44.192.095.378.091.512-.007.131-.091.207-.262.207-.477 0-.214-.076-.45-.207-.665-1.381-2.13-2.156-4.567-2.149-6.734-.003-2.262.768-4.083 2.15-5.076M276.768 284.32l-4.606 4.622-4.171-8.541z"/>
            <path stroke="#3D3D45" stroke-linecap="round" stroke-linejoin="round" stroke-width="1.03" d="M276.768 284.32l-4.606 4.622-4.171-8.541z"/>
            <path stroke="#3D3D45" stroke-linecap="round" stroke-linejoin="round" stroke-width="1.818" d="M272.38 285.666V267.46"/>
            <path fill="#3D3D45" d="M257.658 266.03l4.606-4.621 4.171 8.544z"/>
            <path stroke="#3D3D45" stroke-linecap="round" stroke-linejoin="round" stroke-width="1.03" d="M257.658 266.03l4.606-4.621 4.171 8.544z"/>
            <path stroke="#3D3D45" stroke-linecap="round" stroke-linejoin="round" stroke-width="1.818" d="M262.046 264.684v18.206"/>
            <path fill="#3D3D45" d="M147.333 266.929c-1.608-6.047 3.476-6.153 4.068-5.324.593.917 3.56 5.582 3.56 5.582s.764.712-.425 1.389c-1.098.702-1.695 1.374-1.695 1.374s-.338.157.338 1.513c.51 1.062 5.85 7.803 6.782 8.56 1.185.995 1.44.814 1.44.814s.847-.437 1.865-1.244c1.014-.807 1.607.11 1.607.11s3.898 3.999 4.578 4.77c.763.712-.764 5.312-6.527 2.134-6.101-3.352-13.897-13.192-15.591-19.682v.004z"/>
        </g>
        <g>
            <path fill="#3D3D45" d="M121.088 168.226c-1.643-.528-2.977-2.35-2.977-4.076v-2.197c0-1.727 1.334-2.705 2.977-2.181 1.644.52 2.975 2.345 2.975 4.076v2.192c0 1.727-1.331 2.71-2.975 2.186"/>
            <path stroke="#3D3D45" stroke-width="1.407" d="M121.088 163.996l-4.512-1.432M125.598 165.431l-4.509-1.436M121.088 163.996s-.272-2.905-4.512-4.25M121.088 163.996s.27-2.73 4.51-1.385M121.088 163.996s.27 2.906 4.51 4.251M121.088 163.996s-.272 2.731-4.512 1.386"/>
            <path stroke="#3D3D45" stroke-width="1.407" d="M130.523 166.997c0 5.476-4.225 8.574-9.436 6.92-5.21-1.659-9.432-7.44-9.432-12.916 0-5.48 4.222-8.577 9.432-6.923s9.436 7.44 9.436 12.919z"/>
            <path stroke="#3D3D45" stroke-width="2.818" d="M127.76 173.13l8.247 11.285"/>
            <path fill="#EA8913" d="M214.529 166.166c-.258-.09-.509-.113-.724-.054l-3.92 1.01-4.646-3.381c-.644-.48-1.31-.513-1.676-.08l-2.593 3.149-4.65-1.313c-.648-.185-4.927 2.283-5.05 2.949l2.879 2.592-3.97.928c-.553.134-.819.749-.677 1.538l.949 5.672-2.65 3.069c-.368.425-.368 1.222 0 2.014l2.65 5.68-.95 4.727c-.14.65.125 1.527.677 2.21l3.97 4.887.899 5.65c.124.786.625 1.6 1.273 2.062l4.65 3.324 2.593 5.741c.367.796 1.032 1.425 1.676 1.59l4.647 1.257 3.92 4.92c.261.338.578.614.901.782.324.156.637.192.898.112l3.92-1.003 4.625 3.367c.64.476 1.305.509 1.669.08l3.469.316 3.778-2.156c.643.185 1.152-.127 1.272-.793l.898-4.749 3.975-.927c.545-.134.814-.745.676-1.534l-.953-5.676 2.647-3.04c.371-.425.371-1.218 0-2.01l-2.647-5.713.953-4.727c.138-.65-.13-1.523-.676-2.21l-3.975-4.887-.898-5.647c-.12-.786-.629-1.607-1.272-2.066l-4.647-3.323-2.6-5.741c-.364-.793-1.029-1.426-1.669-1.59l-4.625-1.243-3.92-4.92c-.312-.396-.698-.701-1.076-.843"/>
            <path stroke="#3D3D45" stroke-linecap="round" stroke-linejoin="round" stroke-width="1.818" d="M214.529 166.166c-.258-.09-.509-.113-.724-.054l-3.92 1.01-4.646-3.381c-.644-.48-1.31-.513-1.676-.08l-2.593 3.149-4.65-1.313c-.648-.185-4.927 2.283-5.05 2.949l2.879 2.592-3.97.928c-.553.134-.819.749-.677 1.538l.949 5.672-2.65 3.069c-.368.425-.368 1.222 0 2.014l2.65 5.68-.95 4.727c-.14.65.125 1.527.677 2.21l3.97 4.887.899 5.65c.124.786.625 1.6 1.273 2.062l4.65 3.324 2.593 5.741c.367.796 1.032 1.425 1.676 1.59l4.647 1.257 3.92 4.92c.261.338.578.614.901.782.324.156.637.192.898.112l3.92-1.003 4.625 3.367c.64.476 1.305.509 1.669.08l3.469.316 3.778-2.156c.643.185 1.152-.127 1.272-.793l.898-4.749 3.975-.927c.545-.134.814-.745.676-1.534l-.953-5.676 2.647-3.04c.371-.425.371-1.218 0-2.01l-2.647-5.713.953-4.727c.138-.65-.13-1.523-.676-2.21l-3.975-4.887-.898-5.647c-.12-.786-.629-1.607-1.272-2.066l-4.647-3.323-2.6-5.741c-.364-.793-1.029-1.426-1.669-1.59l-4.625-1.243-3.92-4.92c-.312-.396-.698-.701-1.076-.843z"/>
            <path fill="#FFB44B" d="M209.48 169.113c-.259-.09-.513-.112-.724-.054l-3.923 1.01-4.647-3.38c-.64-.48-1.31-.513-1.673-.08l-2.596 3.148-4.65-1.313c-.648-.181-1.15.131-1.27.793l-.901 4.752-3.97.924c-.554.135-.819.749-.677 1.538l.949 5.672-2.647 3.07c-.367.425-.367 1.22 0 2.014l2.647 5.68-.95 4.726c-.14.65.124 1.527.677 2.21l3.97 4.888.903 5.65c.12.785.621 1.604 1.269 2.062l4.65 3.323 2.596 5.741c.364.797 1.033 1.426 1.673 1.593l4.647 1.255 3.923 4.92c.262.34.575.614.898.78.324.157.636.197.898.114l3.924-1.004 4.621 3.367c.64.476 1.309.513 1.669.08l2.6-3.149 4.65 1.31c.644.185 1.15-.128 1.27-.793l.901-4.75 3.97-.923c.55-.134.819-.749.677-1.538l-.95-5.676 2.644-3.04c.371-.425.371-1.218 0-2.01l-2.643-5.712.949-4.724c.142-.65-.127-1.527-.676-2.214l-3.971-4.887-.902-5.647c-.12-.785-.625-1.607-1.269-2.065l-4.65-3.323-2.6-5.742c-.36-.793-1.029-1.422-1.669-1.589l-4.621-1.243-3.924-4.92c-.312-.396-.694-.698-1.072-.844"/>
            <path stroke="#3D3D45" stroke-linecap="round" stroke-linejoin="round" stroke-width="1.818" d="M209.48 169.113c-.259-.09-.513-.112-.724-.054l-3.923 1.01-4.647-3.38c-.64-.48-1.31-.513-1.673-.08l-2.596 3.148-4.65-1.313c-.648-.181-1.15.131-1.27.793l-.901 4.752-3.97.924c-.554.135-.819.749-.677 1.538l.949 5.672-2.647 3.07c-.367.425-.367 1.22 0 2.014l2.647 5.68-.95 4.726c-.14.65.124 1.527.677 2.21l3.97 4.888.903 5.65c.12.785.621 1.604 1.269 2.062l4.65 3.323 2.596 5.741c.364.797 1.033 1.426 1.673 1.593l4.647 1.255 3.923 4.92c.262.34.575.614.898.78.324.157.636.197.898.114l3.924-1.004 4.621 3.367c.64.476 1.309.513 1.669.08l2.6-3.149 4.65 1.31c.644.185 1.15-.128 1.27-.793l.901-4.75 3.97-.923c.55-.134.819-.749.677-1.538l-.95-5.676 2.644-3.04c.371-.425.371-1.218 0-2.01l-2.643-5.712.949-4.724c.142-.65-.127-1.527-.676-2.214l-3.971-4.887-.902-5.647c-.12-.785-.625-1.607-1.269-2.065l-4.65-3.323-2.6-5.742c-.36-.793-1.029-1.422-1.669-1.589l-4.621-1.243-3.924-4.92c-.312-.396-.694-.698-1.072-.844z"/>
            <path fill="#FFB44B" d="M209.654 178.147c-10.574-5.273-19.184.069-19.184 11.9 0 11.836 8.61 25.766 19.184 31.045 10.573 5.276 19.184-.065 19.184-11.904 0-11.836-8.61-25.765-19.184-31.041"/>
            <path stroke="#3D3D45" stroke-linecap="round" stroke-linejoin="round" stroke-width="1.818" d="M209.654 178.147c-10.574-5.273-19.184.069-19.184 11.9 0 11.836 8.61 25.766 19.184 31.045 10.573 5.276 19.184-.065 19.184-11.904 0-11.836-8.61-25.765-19.184-31.041z"/>
            <path stroke="#3D3D45" stroke-linecap="round" stroke-linejoin="round" stroke-width="3.636" d="M201.547 199.171l5.742 7.989 9.813-13.963"/>
        </g>
    </g>
</svg>
