<svg xmlns="http://www.w3.org/2000/svg" xmlns:xlink="http://www.w3.org/1999/xlink" width="432" height="375" viewBox="0 0 432 375">
    <defs>
        <path id="b" d="M259.463 129.819c0 71.645-58.082 129.727-129.731 129.727C58.082 259.546 0 201.464 0 129.819 0 58.169 58.082.088 129.732.088S259.463 58.17 259.463 129.819"/>
        <filter id="a" width="227.2%" height="227.2%" x="-63.6%" y="-63.6%" filterUnits="objectBoundingBox">
            <feOffset in="SourceAlpha" result="shadowOffsetOuter1"/>
            <feGaussianBlur in="shadowOffsetOuter1" result="shadowBlurOuter1" stdDeviation="55"/>
            <feColorMatrix in="shadowBlurOuter1" values="0 0 0 0 0.294117647 0 0 0 0 0.474509804 0 0 0 0 0.917647059 0 0 0 0.1 0"/>
        </filter>
    </defs>
    <g fill="none" fill-rule="evenodd">
        <g transform="translate(86 58)">
            <use fill="#000" filter="url(#a)" xlink:href="#b"/>
            <use fill="#FFF" xlink:href="#b"/>
        </g>
        <path fill="#A2A2BC" d="M291.581 176.968c-.043-.022-.078-.07-.117-.09l-.021-.014-66.555-38.069-26.286-15.282a5.05 5.05 0 0 0-4.939-.087l-7.087 3.79 6.637 14.135-46.356-26.77a5.066 5.066 0 0 0-4.947-.074c-2.854 1.546-7.143 3.894-7.143 3.894l6.706 49.11v1.019c0 2.85 2.274 6.441 5.098 8.143.048.026.087.078.13.104l139.509 87.816 8.048-4.895a5.074 5.074 0 0 0 2.44-4.336v-70.237c0-2.85-2.288-6.455-5.117-8.157"/>
        <path stroke="#3D3D45" stroke-linecap="round" stroke-linejoin="round" stroke-width="1.98" d="M291.581 176.968c-.043-.022-.078-.07-.117-.09l-.021-.014-66.555-38.069-26.286-15.282a5.05 5.05 0 0 0-4.939-.087l-7.087 3.79 6.637 14.135-46.356-26.77a5.066 5.066 0 0 0-4.947-.074c-2.854 1.546-7.143 3.894-7.143 3.894l6.706 49.11v1.019c0 2.85 2.274 6.441 5.098 8.143.048.026.087.078.13.104l139.509 87.816 8.048-4.895a5.074 5.074 0 0 0 2.44-4.336v-70.237c0-2.85-2.288-6.455-5.117-8.157z"/>
        <path fill="#F8F6FF" d="M282.799 263.91l-144.763-82.799c-2.89-1.655-5.229-5.8-5.229-9.266v-49.487c0-3.461 2.34-4.926 5.229-3.28l46.511 26.607V131.28c0-3.465 2.34-4.934 5.229-3.279l93.023 53.204c2.89 1.655 5.233 5.8 5.233 9.266v70.16c0 3.465-2.344 4.934-5.233 3.279"/>
        <path fill="#CFCFE5" d="M184.55 207.714l-46.486-26.593c-2.903-1.655-5.255-5.359-5.255-8.26v-51.516c0-2.902 2.352-3.911 5.255-2.252l46.485 26.593v62.028z"/>
        <path fill="#CFCFE5" d="M288.032 204.876l-103.485-59.191v-15.422c0-2.902 2.353-3.907 5.255-2.248l92.975 53.178c2.903 1.66 5.255 5.363 5.255 8.261v15.422z"/>
        <path stroke="#3D3D45" stroke-linecap="round" stroke-linejoin="round" stroke-width="1.98" d="M282.799 263.91l-144.763-82.799c-2.89-1.655-5.229-5.8-5.229-9.266v-49.487c0-3.461 2.34-4.926 5.229-3.28l46.511 26.607V131.28c0-3.465 2.34-4.934 5.229-3.279l93.023 53.204c2.89 1.655 5.233 5.8 5.233 9.266v70.16c0 3.465-2.344 4.934-5.233 3.279zM184.549 207.714v-62.028"/>
        <path stroke="#3D3D45" stroke-linecap="round" stroke-linejoin="round" stroke-width="1.98" d="M236.29 237.31V154.6l8.14-4.63M288.032 204.876l-103.485-59.191M288.032 225.554l-155.225-88.791M288.032 246.228l-155.225-88.787"/>
        <path fill="#FFB44B" d="M125.637 143.248v20.676l51.74 29.596v-20.676z"/>
        <path stroke="#3D3D45" stroke-linecap="round" stroke-linejoin="round" stroke-width="1.98" d="M125.637 143.248v20.676l51.74 29.596v-20.676z"/>
        <path stroke="#3D3D45" stroke-linecap="round" stroke-linejoin="round" stroke-width="4.332" d="M151.129 168.385l-18.319-10.483"/>
        <path stroke="#CFCFE5" stroke-linecap="round" stroke-width="4.332" d="M212.761 172.188l-20.273-11.597"/>
        <path stroke="#A2A2BC" stroke-linecap="round" stroke-width="4.332" d="M205.066 147.081l-12.575-7.191M154.547 139.073l-12.579-7.191"/>
        <path stroke="#CFCFE5" stroke-linecap="round" stroke-width="4.332" d="M203.251 187.929l-10.76-6.16M206.331 209.754l-13.84-7.919M257.087 196.783l-13.84-7.918M259.359 219.259l-16.115-9.218M254.993 236.823l-11.748-6.718"/>
        <path fill="#FFB44B" d="M229.12 160.593v20.676l51.74 29.595V194.33a7.128 7.128 0 0 0-3.587-6.194l-48.153-27.542z"/>
        <path stroke="#3D3D45" stroke-linecap="round" stroke-linejoin="round" stroke-width="1.98" d="M229.12 160.593v20.676l51.74 29.595V194.33a7.128 7.128 0 0 0-3.587-6.194l-48.153-27.542z"/>
        <path stroke="#3D3D45" stroke-linecap="round" stroke-linejoin="round" stroke-width="4.332" d="M249.109 182.612l-13.841-7.915"/>
    </g>
</svg>
