<svg xmlns="http://www.w3.org/2000/svg" xmlns:xlink="http://www.w3.org/1999/xlink" width="432" height="375" viewBox="0 0 432 375">
    <defs>
        <path id="b" d="M323.896 193.406c0 70.112-56.835 126.947-126.947 126.947S70 263.518 70 193.406 126.837 66.458 196.949 66.458s126.947 56.836 126.947 126.948"/>
        <filter id="a" width="224.1%" height="224.1%" x="-62%" y="-62%" filterUnits="objectBoundingBox">
            <feOffset in="SourceAlpha" result="shadowOffsetOuter1"/>
            <feGaussianBlur in="shadowOffsetOuter1" result="shadowBlurOuter1" stdDeviation="52.5"/>
            <feColorMatrix in="shadowBlurOuter1" values="0 0 0 0 0.294117647 0 0 0 0 0.474509804 0 0 0 0 0.917647059 0 0 0 0.15 0"/>
        </filter>
    </defs>
    <g fill="none" fill-rule="evenodd">
        <g>
            <use fill="#000" filter="url(#a)" xlink:href="#b"/>
            <use fill="#FFF" xlink:href="#b"/>
        </g>
        <g fill="#FFB44B">
            <path d="M264.402 279.546h-33.7a6.194 6.194 0 0 1-6.197-6.197 6.194 6.194 0 0 1 6.197-6.197h33.7a6.194 6.194 0 0 1 6.197 6.197 6.194 6.194 0 0 1-6.197 6.197M315.008 250.325h-41.04a6.765 6.765 0 0 1-6.762-6.77 6.761 6.761 0 0 1 6.761-6.765h41.041a6.766 6.766 0 0 1 6.77 6.765 6.77 6.77 0 0 1-6.77 6.77M321.106 184.58h-26.603a6.759 6.759 0 0 1-6.757-6.757 6.759 6.759 0 0 1 6.757-6.757h26.603a6.759 6.759 0 0 1 6.757 6.757 6.759 6.759 0 0 1-6.757 6.757M334.224 295.778h-33.377a8.478 8.478 0 0 1 0-16.956h33.377a8.481 8.481 0 0 1 8.478 8.478 8.481 8.481 0 0 1-8.478 8.478M362.287 223.438h-26.451a6.714 6.714 0 0 1-6.715-6.719 6.713 6.713 0 0 1 6.715-6.714h26.45a6.713 6.713 0 0 1 6.715 6.714 6.714 6.714 0 0 1-6.714 6.72M412.71 204.235h-24.899a8.478 8.478 0 0 1 0-16.956h24.9a8.481 8.481 0 0 1 8.478 8.478 8.481 8.481 0 0 1-8.478 8.478M390.8 265.712h-20.66a8.478 8.478 0 0 1 0-16.956h20.66a8.481 8.481 0 0 1 8.478 8.478 8.481 8.481 0 0 1-8.478 8.478M421.905 235.439h-12.183a8.478 8.478 0 0 1 0-16.956h12.183a8.481 8.481 0 0 1 8.478 8.478 8.481 8.481 0 0 1-8.478 8.478"/>
        </g>
        <path fill="#3D3D45" d="M184.276 269.98l-14.577-.162 6.036-13.026z"/>
        <path stroke="#3D3D45" stroke-linecap="round" stroke-linejoin="round" stroke-width="1.42" d="M184.276 269.98l-14.577-.162 6.036-13.026z"/>
        <path stroke="#3D3D45" stroke-linecap="round" stroke-linejoin="round" stroke-width="2.119" d="M175.844 265.861l73.278-42.745a28.745 28.745 0 0 0 14.264-24.836v-68.658"/>
        <path fill="#CFCFE5" d="M289.6 72.343l-39.744-22.708-5.647 3.659 39.745 22.708z"/>
        <path stroke="#3D3D45" stroke-linecap="round" stroke-linejoin="round" stroke-width="2.119" d="M289.6 72.343l-39.744-22.708-5.647 3.659 39.745 22.708z"/>
        <path fill="#A2A2BC" d="M283.953 76.003l5.646-3.658v71.048l-5.442 3.82z"/>
        <path stroke="#3D3D45" stroke-linecap="round" stroke-linejoin="round" stroke-width="2.119" d="M283.953 76.003l5.646-3.658v71.048l-5.442 3.82z"/>
        <path fill="#FF934A" d="M163.297 322.023v-37.307l-32.31-36.256-32.304 1.056-7.105 4.107 64.614 72.516z"/>
        <path fill="#F2DC7C" d="M123.884 252.564l-32.305 1.052v37.306l32.343-1.03z"/>
        <path fill="#FACB73" d="M123.884 252.564l32.309 36.256v37.307l-32.31-36.281z"/>
        <path fill="#FDB073" d="M91.578 290.93l32.305 36.256 32.31-1.047-32.272-36.26z"/>
        <path fill="#F9EDBD" fill-opacity=".5" d="M91.578 253.624l32.305-1.047 32.31 36.256-32.301 1.05z"/>
        <path fill="#FACB73" fill-opacity=".5" d="M156.193 288.831l-32.309 1.043v37.311l32.31-1.047z"/>
        <path fill="#FDB073" fill-opacity=".5" d="M91.578 253.624v37.307l32.305 36.256v-37.312z"/>
        <path fill="#F9CD87" d="M91.578 253.624l7.105-4.112 32.305-1.051 32.309 36.256-7.105 4.116-32.309-36.269z"/>
        <path fill="#F8F6FF" d="M244.21 53.293l.203 71.21 39.744 22.708-.203-71.21z"/>
        <path stroke="#3D3D45" stroke-linecap="round" stroke-linejoin="round" stroke-width="2.119" d="M244.21 53.293l.203 71.21 39.744 22.708-.203-71.21z"/>
        <path stroke="#BEBED7" stroke-linecap="round" stroke-width="4.239" d="M251.483 74.405l24.658 14.09M251.483 91.36l24.658 14.09M251.483 108.316l24.658 14.09"/>
        <g fill="#3D3D45">
            <path d="M253.285 23.192l1.092.645c.39.228.921.477.921-.132 0-.426-.237-.816-1.035-1.284l-.978-.576v1.347zM251.2 19l3.975 2.346c1.185.699 2.211 1.956 2.211 3.24 0 .699-.32 1.25-1.017 1.098.573.555.921 1.389.996 2.277.03.348.04 1.164.231 1.587l-2.09-1.233a6.45 6.45 0 0 1-.169-1.146c-.057-.675-.114-1.386-.942-1.872l-1.11-.654v2.36l-2.085-1.23v-6.773zM258.711 23.429l2.085 1.233v6.774l-2.085-1.23zM267.31 34.585c-.465.321-1.188.153-1.93-.282-2-1.182-3.233-3.465-3.233-5.394 0-2.58 1.812-2.544 3.342-1.641 1.725 1.014 2.817 2.598 3.12 4.374l-2.001-1.182c-.078-.54-.492-1.137-.987-1.428-1.434-.846-1.386.693-1.386 1.158 0 .636.258 1.896 1.527 2.646.486.288.98.33 1.083-.111l-.921-.543V30.73l2.772 1.635v3.729l-1.323-.777-.063-.732zM270.207 30.211l2.088 1.23v2.355l1.956 1.152v-2.352l2.089 1.23v6.777l-2.088-1.23v-2.688l-1.956-1.155v2.688l-2.088-1.23zM279.474 37.412l-1.9-1.119v-1.737l5.887 3.471v1.734l-1.9-1.119v5.04l-2.087-1.23zM286.368 44.241c0 .171.03.336.075.49.153.497.609.851.996 1.08.345.203.867.395.867-.109 0-.35-.297-.618-1.464-1.638-1.071-.936-2.295-1.953-2.295-3.318 0-1.566 1.338-1.449 2.733-.627 1.47.867 2.772 2.19 2.826 3.88l-1.974-1.168c.039-.234-.075-.47-.243-.684a2.28 2.28 0 0 0-.618-.537c-.285-.168-.75-.366-.75.015.036.507 1.005 1.18 1.962 2.013.957.831 1.91 1.836 1.91 3.078 0 1.767-1.622 1.377-3.131.486-.771-.45-2.961-2.019-2.982-4.194l2.088 1.233zM254.01 34.31c.263.033.54-.07.54-.384 0-.246-.193-.567-.457-.723-.237-.141-.504-.126-.504.168 0 .237.246.639.42.939zm-.553 1.488c-.273-.021-.654 0-.654.342 0 .369.321.83.645 1.017.303.183.57.138.798.063l-.789-1.422zm1.785 3.282c-.618.12-1.185-.066-1.935-.507-1.302-.765-2.307-2.241-2.307-3.561 0-.9.768-1.074 1.51-1.017-.313-.528-.535-1.074-.535-1.548 0-1.08 1.008-1.161 2.013-.57 1.263.747 2.175 1.833 2.175 3.039 0 .768-.597 1.053-1.242 1.01l.522.955a.59.59 0 0 0 .246-.366l1.563.924c-.093.522-.36.972-.795 1.173l1.383 2.478-2.22-1.314-.378-.696zM266.624 42.017c-.039-.27-.225-1.13-1.089-1.64-.978-.577-1.293.188-1.293 1.097 0 .913.315 2.047 1.293 2.623.7.413.978.083 1.101-.484l2.05 1.213c0 1.368-1.114 2.163-3.094.996-2.193-1.297-3.435-3.577-3.435-5.578 0-2.135 1.347-2.756 3.435-1.523 1.857 1.107 2.883 2.688 3.066 4.49l-2.034-1.194zM273.56 47.936l-.61-2.445-.018-.01-.654 1.699 1.281.756zm-1.645-5.322l2.043 1.203 2.466 8.229-2.166-1.275-.282-1.137-2.154-1.27-.306.79-2.097-1.24 2.496-5.3zM278.308 48.117l-1.899-1.119v-1.737l5.886 3.471v1.737l-1.899-1.119v5.04l-2.088-1.23zM286.359 55.485l-.606-2.445-.021-.009-.654 1.698 1.28.756zm-1.641-5.322l2.04 1.203 2.469 8.23-2.166-1.276-.282-1.137-2.157-1.269-.303.79-2.097-1.24 2.496-5.3zM290.17 53.376l2.085 1.233v5.04l3 1.767v1.737l-5.085-3zM299.862 64.342c.53.312 1.347.441 1.347-1.065 0-1.509-.816-2.343-1.347-2.655-.534-.315-1.347-.447-1.347 1.065 0 1.509.813 2.343 1.347 2.655m0-5.409c2.06 1.215 3.435 3.504 3.435 5.574s-1.374 2.739-3.435 1.521c-2.061-1.212-3.438-3.501-3.438-5.574 0-2.067 1.377-2.736 3.438-1.521M309.62 70.934c-.461.32-1.187.153-1.925-.282-2.004-1.182-3.237-3.465-3.237-5.394 0-2.58 1.815-2.544 3.345-1.641 1.725 1.014 2.814 2.598 3.12 4.374l-2.001-1.182c-.078-.54-.495-1.137-.987-1.428-1.434-.846-1.386.693-1.386 1.158 0 .636.255 1.896 1.524 2.646.486.288.98.33 1.086-.111l-.924-.543v-1.452l2.772 1.635v3.729l-1.32-.777-.066-.732zM318.667 74.341c0 1.881-1.014 2.184-3.08.963-2.074-1.221-3.097-2.727-3.097-4.605v-4.158l2.088 1.233v3.69c0 .693 0 1.56 1.017 2.157.987.582.987-.282.987-.975v-3.693l2.085 1.233v4.155zM320.202 71.089l5.607 3.309v1.737l-3.522-2.079v.846l3.201 1.884v1.617l-3.2-1.887v.846l3.626 2.139v1.734l-5.712-3.369zM329.024 80.79c0 .173.027.338.072.491.153.498.612.852.999 1.08.342.204.864.396.864-.108 0-.35-.294-.618-1.464-1.64-1.071-.934-2.292-1.95-2.292-3.316 0-1.569 1.335-1.449 2.733-.63 1.47.87 2.769 2.193 2.826 3.88l-1.974-1.165c.039-.234-.078-.47-.246-.684a2.28 2.28 0 0 0-.618-.537c-.285-.168-.75-.366-.75.015.036.504 1.005 1.18 1.965 2.01.957.831 1.908 1.84 1.908 3.081 0 1.767-1.623 1.377-3.132.486-.768-.45-2.961-2.019-2.98-4.194l2.089 1.23z"/>
        </g>
        <path fill="#000" fill-rule="nonzero" d="M291.624 177.3c-.407.323-.932.441-1.44.34a1.814 1.814 0 0 1-1.188-.865c-.101-.153-.288-.204-.44-.119a.319.319 0 0 0-.136.441c.356.61.95 1.034 1.644 1.17a2.374 2.374 0 0 0 1.95-.44c.56-.425.916-1.07.967-1.764a2.411 2.411 0 0 0-.678-1.882l-2.713-2.798a1.693 1.693 0 0 1 .203-2.543c.39-.306.882-.407 1.357-.323.491.102.898.407 1.153.831a.328.328 0 0 0 .44.119.348.348 0 0 0 .12-.458 2.385 2.385 0 0 0-3.477-.695 2.37 2.37 0 0 0-.254 3.527l2.696 2.78c.356.374.542.882.509 1.39a1.78 1.78 0 0 1-.713 1.29zm6.24-9.223a.31.31 0 0 0-.305-.238.347.347 0 0 0-.322.238l-2.713 9.834a.358.358 0 0 0 .237.407.34.34 0 0 0 .367-.17l.044-.14c.066-.237.29-1.032.573-2.064h3.628l.577 2.136c.05.17.237.272.407.238a.332.332 0 0 0 .22-.407l-2.713-9.834zm1.323 7.223h-3.256l1.628-5.918 1.628 5.918zm4.95 2.95a2.362 2.362 0 0 0 2.646-1.102c.102-.17.05-.356-.119-.458a.328.328 0 0 0-.44.119c-.39.678-1.17 1-1.917.797a1.69 1.69 0 0 1-1.271-1.645v-5.765c0-.763.525-1.458 1.271-1.645a1.688 1.688 0 0 1 1.916.797.328.328 0 0 0 .441.119c.17-.102.22-.288.119-.458a2.33 2.33 0 0 0-2.645-1.085 2.341 2.341 0 0 0-1.747 2.272v5.765c0 1.068.712 2 1.747 2.289zm5.308 0h3.391a.312.312 0 0 0 .322-.322.312.312 0 0 0-.322-.322h-3.069v-4.375h2.73a.312.312 0 0 0 .322-.322.312.312 0 0 0-.322-.322h-2.73v-4.036h3.069a.312.312 0 0 0 .322-.322.312.312 0 0 0-.322-.322h-3.391a.312.312 0 0 0-.322.322v9.699c0 .186.135.322.322.322zm6.24.068a.312.312 0 0 1-.323-.322v-9.835c0-.152.102-.288.255-.322.113-.028.238.026.315.123l.04.064s1.95 4.137 2.426 5.137l2.407-5.137a.341.341 0 0 1 .373-.187c.153.034.255.17.255.322v9.835a.322.322 0 0 1-.323.322.31.31 0 0 1-.316-.255l-.006-.067v-8.376l-2.102 4.442a.313.313 0 0 1-.288.186.325.325 0 0 1-.26-.121l-.046-.065s-1.34-2.883-2.085-4.442v8.376a.322.322 0 0 1-.322.322zM331.216 217.236c-.407.322-.933.441-1.441.34a1.814 1.814 0 0 1-1.187-.865c-.102-.153-.288-.204-.44-.119a.319.319 0 0 0-.137.44c.356.611.95 1.035 1.645 1.17a2.374 2.374 0 0 0 1.95-.44c.56-.424.916-1.068.967-1.763a2.411 2.411 0 0 0-.679-1.883l-2.713-2.797a1.693 1.693 0 0 1 .203-2.543c.39-.306.883-.408 1.357-.323.492.102.899.407 1.153.831a.328.328 0 0 0 .441.119.348.348 0 0 0 .119-.458 2.385 2.385 0 0 0-3.476-.695 2.37 2.37 0 0 0-.254 3.527l2.696 2.78c.356.373.542.882.508 1.39a1.78 1.78 0 0 1-.712 1.29zm6.24-9.224a.31.31 0 0 0-.305-.237.347.347 0 0 0-.323.237l-2.713 9.835a.358.358 0 0 0 .238.407.34.34 0 0 0 .366-.17l.27-.947.347-1.257h3.629l.576 2.136c.051.17.238.272.407.238a.332.332 0 0 0 .22-.407l-2.712-9.835zm1.322 7.224h-3.255l1.628-5.918 1.627 5.918zm3.408-7.071v9.699c0 .186.136.322.323.322h2.034a2.352 2.352 0 0 0 2.357-2.357v-.95c0-.864-.475-1.627-1.17-2.034a2.365 2.365 0 0 0 1.17-2.035v-.61a2.352 2.352 0 0 0-2.357-2.357h-2.034a.312.312 0 0 0-.323.322zm4.07 6.714v.95c0 .95-.78 1.713-1.713 1.713h-1.712v-4.375h1.712c.933 0 1.713.763 1.713 1.712zm0-4.68v.611c0 .95-.78 1.713-1.713 1.713h-1.712v-4.036h1.712c.933 0 1.713.763 1.713 1.713zm5.44-2.187a.31.31 0 0 0-.304-.237.347.347 0 0 0-.322.237l-2.713 9.835a.358.358 0 0 0 .237.407.34.34 0 0 0 .367-.17l.27-.947c.096-.346.215-.776.346-1.257h3.629l.576 2.136c.051.17.238.272.407.238a.332.332 0 0 0 .22-.407l-2.712-9.835zm1.323 7.224h-3.255l1.628-5.918 1.627 5.918zm3.73 3.018a.312.312 0 0 1-.321-.322v-9.835c0-.152.101-.288.254-.322.113-.028.238.026.315.123l.041.064s1.95 4.137 2.425 5.137l2.407-5.137a.341.341 0 0 1 .373-.187c.153.034.255.17.255.322v9.835a.322.322 0 0 1-.322.322.31.31 0 0 1-.316-.255l-.007-.067v-8.377l-2.102 4.443a.313.313 0 0 1-.288.186.338.338 0 0 1-.306-.186l-2.009-4.282a140.67 140.67 0 0 0-.076-.16v8.376a.322.322 0 0 1-.322.322zM227.735 272.885a.33.33 0 0 0 .322.237.31.31 0 0 0 .305-.237l2.07-8.529 2.05 8.53a.33.33 0 0 0 .323.236.31.31 0 0 0 .305-.237l2.374-9.834a.322.322 0 0 0-.237-.407.33.33 0 0 0-.362.18l-.028.074-2.052 8.512-2.069-8.512a.308.308 0 0 0-.305-.254.329.329 0 0 0-.297.182l-.025.072-2.052 8.512-2.068-8.512c-.034-.186-.204-.288-.39-.254a.349.349 0 0 0-.238.407l2.374 9.834zm9.97-3.849c-1.102 0-2 .899-2 2 0 1.103.898 2.002 2 2.002h1.696c.17 0 .305-.136.305-.306v-5.052c0-.797-.475-1.51-1.22-1.815a1.96 1.96 0 0 0-2.137.424.297.297 0 0 0 0 .424.27.27 0 0 0 .369.05l.055-.05a1.39 1.39 0 0 1 1.475-.288c.508.22.847.712.847 1.255v1.356h-1.39zm-1.39 2c0-.762.61-1.39 1.39-1.39h1.39v2.781h-1.39c-.78 0-1.39-.627-1.39-1.39zm6.341 2.07c.17 0 .305-.136.305-.306v-6.409h1.39c.238 0 .492.068.696.187.153.084.339.033.424-.12.085-.135.034-.321-.119-.406a2.057 2.057 0 0 0-1-.271h-1.696a.304.304 0 0 0-.305.305v6.714c0 .17.136.306.305.306zm5.07 0c.17 0 .305-.136.305-.306v-6.409h1.39c.764 0 1.39.627 1.39 1.39v5.02c0 .169.137.305.306.305.17 0 .305-.136.305-.306v-5.019c0-1.102-.898-2-2-2h-1.696a.304.304 0 0 0-.305.305v6.714c0 .17.135.306.305.306zm7.376-.153c.746.305 1.61.136 2.17-.44a.297.297 0 0 0 0-.425.297.297 0 0 0-.424 0c-.407.407-1 .526-1.509.305a1.4 1.4 0 0 1-.865-1.288v-1.39h3.086c.17 0 .305-.136.305-.306v-1.695c0-1.103-.898-2.001-2-2.001-1.102 0-2.001.898-2.001 2v3.392c0 .814.492 1.543 1.238 1.848zm.763-6.63c.763 0 1.39.628 1.39 1.39v1.391h-2.78v-1.39c0-.763.627-1.39 1.39-1.39zm4.747 6.783a.304.304 0 0 1-.305-.306v-6.714c0-.17.136-.305.305-.305h1.696c.356 0 .695.101 1 .27.153.086.204.272.119.408a.308.308 0 0 1-.424.119 1.422 1.422 0 0 0-.695-.187h-1.39v6.41c0 .169-.136.305-.306.305zM268.904 240.974v-7.8a.322.322 0 0 0-.322-.321c-.187 0-.34.135-.34.322v7.8a2.366 2.366 0 0 0 4.731 0v-7.8a.322.322 0 0 0-.322-.322c-.187 0-.34.135-.34.322v7.8a1.704 1.704 0 1 1-3.407 0zm7.002 2.34c.17 0 .306-.135.306-.305v-6.41h1.39c.763 0 1.39.628 1.39 1.391v5.02c0 .169.136.304.306.304.17 0 .305-.135.305-.305v-5.019c0-1.102-.899-2-2.001-2h-1.696a.304.304 0 0 0-.305.305v6.714c0 .17.136.305.305.305zm6.647-9.156a.474.474 0 1 0-.475-.475c0 .255.22.475.475.475zm.305 8.851v-6.782a.304.304 0 0 0-.305-.305.304.304 0 0 0-.305.305v6.782c0 .17.135.305.305.305.17 0 .305-.135.305-.305zm4.24.085a.29.29 0 0 0 .287.22.29.29 0 0 0 .289-.22l2.034-6.782a.294.294 0 0 0-.203-.373.294.294 0 0 0-.373.203l-1.747 5.799-1.746-5.799c-.034-.17-.22-.254-.373-.203a.294.294 0 0 0-.203.373l2.034 6.782zm5.512.068c.746.305 1.61.135 2.17-.441a.297.297 0 0 0 0-.424.297.297 0 0 0-.424 0c-.407.407-1 .526-1.51.305a1.4 1.4 0 0 1-.864-1.289v-1.39h3.086c.17 0 .305-.136.305-.305v-1.696c0-1.102-.898-2-2-2-1.103 0-2.001.898-2.001 2v3.391c0 .814.491 1.543 1.238 1.849zm.763-6.63c.763 0 1.39.627 1.39 1.39v1.39h-2.78v-1.39c0-.763.627-1.39 1.39-1.39zm4.747 6.782c.17 0 .305-.135.305-.305v-6.41h1.39c.238 0 .492.069.696.187.152.085.339.034.424-.118.085-.136.034-.323-.119-.407a2.057 2.057 0 0 0-1-.272h-1.696a.304.304 0 0 0-.305.306v6.714c0 .17.136.305.305.305zm6.935-.95c-.288.272-.678.39-1.068.323a1.23 1.23 0 0 1-.916-.627.308.308 0 0 0-.424-.12.308.308 0 0 0-.118.425c.288.508.797.83 1.356.932a1.907 1.907 0 0 0 1.577-.474c.424-.39.644-.95.61-1.526a1.9 1.9 0 0 0-.797-1.442l-1.576-1.102a1.252 1.252 0 0 1-.526-.915c-.017-.373.119-.73.39-.984a1.247 1.247 0 0 1 1.017-.305c.373.05.678.271.865.593a.308.308 0 0 0 .424.12c.153-.086.186-.272.102-.425a1.819 1.819 0 0 0-1.306-.898 1.826 1.826 0 0 0-1.509.457c-.407.39-.627.916-.593 1.475.033.56.322 1.069.78 1.374l1.576 1.119c.323.22.526.576.543.966.034.39-.119.763-.407 1.035zm4.73-3.12c-1.101 0-2 .9-2 2.002 0 1.102.899 2 2 2h1.696c.17 0 .305-.135.305-.305v-5.053c0-.797-.474-1.509-1.22-1.814a1.96 1.96 0 0 0-2.137.424.297.297 0 0 0 0 .424.27.27 0 0 0 .37.05l.054-.05a1.39 1.39 0 0 1 1.475-.288c.509.22.848.712.848 1.254v1.357h-1.39zm-1.39 2.002c0-.763.61-1.39 1.39-1.39h1.391v2.78h-1.39c-.78 0-1.39-.627-1.39-1.39zm6.817 2.034a1.687 1.687 0 0 1-.831-1.44v-9.004c0-.17.152-.306.305-.306.17 0 .305.136.305.306v9.003c0 .373.204.712.526.899a.308.308 0 0 1 .118.424.308.308 0 0 1-.423.118zM304.596 286.06c-.407.322-.933.44-1.442.339a1.814 1.814 0 0 1-1.187-.865c-.101-.153-.288-.203-.44-.119a.319.319 0 0 0-.136.441c.356.61.95 1.035 1.645 1.17a2.374 2.374 0 0 0 1.95-.44c.559-.425.915-1.069.966-1.764a2.411 2.411 0 0 0-.678-1.882l-2.713-2.798a1.693 1.693 0 0 1 .203-2.543c.39-.305.882-.407 1.357-.322.491.101.898.407 1.153.83a.328.328 0 0 0 .44.12.348.348 0 0 0 .12-.459 2.385 2.385 0 0 0-3.477-.695 2.37 2.37 0 0 0-.254 3.527l2.696 2.78c.356.374.543.882.509 1.391a1.78 1.78 0 0 1-.712 1.289zm3.442-7.105v5.765a2.352 2.352 0 0 0 2.356 2.357 2.352 2.352 0 0 0 2.357-2.357v-5.765a2.352 2.352 0 0 0-2.357-2.357 2.352 2.352 0 0 0-2.356 2.357zm4.069 0v5.765c0 .95-.763 1.713-1.713 1.713-.95 0-1.712-.763-1.712-1.713v-5.765c0-.95.763-1.712 1.712-1.712.95 0 1.713.763 1.713 1.712zm4.73 8.054a2.362 2.362 0 0 0 2.646-1.102c.101-.17.05-.356-.119-.458a.328.328 0 0 0-.44.119c-.39.678-1.17 1-1.917.797a1.69 1.69 0 0 1-1.272-1.645v-5.765c0-.763.526-1.458 1.272-1.644a1.688 1.688 0 0 1 1.916.796.328.328 0 0 0 .441.12c.17-.103.22-.29.119-.459a2.33 2.33 0 0 0-2.645-1.085 2.341 2.341 0 0 0-1.747 2.272v5.765c0 1.068.712 2.001 1.747 2.29zm7.58-10.173a.31.31 0 0 0-.305-.238.347.347 0 0 0-.323.238l-2.712 9.834a.358.358 0 0 0 .237.407.34.34 0 0 0 .366-.169l.033-.1c.048-.172.283-1.005.584-2.105h3.629l.576 2.137c.051.17.238.271.407.237a.332.332 0 0 0 .22-.407l-2.712-9.834zm1.322 7.223h-3.255l1.628-5.918 1.627 5.918zm8.546 3.018c-.113.028-.238-.026-.316-.123l-.04-.063s-3.205-6.613-4.137-8.546v8.41a.312.312 0 0 1-.322.322.312.312 0 0 1-.323-.322v-9.834c0-.153.102-.289.255-.323.113-.028.238.026.315.124l.04.063s3.205 6.613 4.138 8.546v-8.41c0-.187.136-.323.322-.323.187 0 .322.136.322.323v9.834a.327.327 0 0 1-.254.322zM370.638 256.947a2.362 2.362 0 0 0 2.645-1.102c.102-.17.051-.357-.118-.458a.328.328 0 0 0-.441.118c-.39.679-1.17 1-1.916.797a1.69 1.69 0 0 1-1.272-1.644v-5.765c0-.763.526-1.458 1.272-1.645a1.688 1.688 0 0 1 1.916.797.328.328 0 0 0 .44.119c.17-.102.221-.289.12-.458a2.33 2.33 0 0 0-2.646-1.085 2.341 2.341 0 0 0-1.746 2.272v5.765c0 1.068.712 2 1.746 2.289zm6.833-.17a.33.33 0 0 0 .323.238.31.31 0 0 0 .28-.173l.025-.065s1.594-6.562 2.068-8.529l2.052 8.53a.33.33 0 0 0 .322.237.31.31 0 0 0 .305-.238l2.374-9.834a.322.322 0 0 0-.237-.407.33.33 0 0 0-.362.18l-.028.074-2.052 8.512-2.068-8.512a.308.308 0 0 0-.306-.254.329.329 0 0 0-.297.182l-.025.072-2.051 8.512-2.07-8.512c-.033-.186-.203-.288-.39-.254a.349.349 0 0 0-.236.407l2.373 9.834zm12.344-10.173h-2.035a.322.322 0 0 0-.322.322v9.766c0 .187.153.323.322.323a.312.312 0 0 0 .323-.323v-4.425h1.746l1.696 4.544c.067.17.254.254.424.187a.325.325 0 0 0 .186-.424l-1.645-4.409a2.34 2.34 0 0 0 1.662-2.255v-.95a2.352 2.352 0 0 0-2.357-2.356zm1.713 3.306c0 .95-.763 1.713-1.713 1.713h-1.712v-4.375h1.712c.95 0 1.713.763 1.713 1.713v.949zM391.205 194.516c-.406.322-.932.44-1.44.339a1.814 1.814 0 0 1-1.188-.865c-.101-.153-.288-.203-.44-.119a.319.319 0 0 0-.136.441c.356.61.95 1.034 1.645 1.17a2.374 2.374 0 0 0 1.95-.44c.559-.425.915-1.069.966-1.764a2.411 2.411 0 0 0-.678-1.882l-2.713-2.798a1.693 1.693 0 0 1 .203-2.543c.39-.306.882-.407 1.357-.322.491.101.898.406 1.153.83a.328.328 0 0 0 .44.12.348.348 0 0 0 .12-.459 2.385 2.385 0 0 0-3.477-.695 2.37 2.37 0 0 0-.254 3.527l2.696 2.78c.356.374.543.882.509 1.391a1.78 1.78 0 0 1-.713 1.289zm3.443-1.34a2.363 2.363 0 0 0 2.356 2.357 2.352 2.352 0 0 0 2.357-2.357v-2.713a.312.312 0 0 0-.322-.322h-1.696a.322.322 0 1 0 0 .644h1.374v2.391c0 .95-.763 1.713-1.713 1.713a1.719 1.719 0 0 1-1.712-1.713v-5.765c0-.763.525-1.458 1.272-1.645a1.71 1.71 0 0 1 1.932.797.328.328 0 0 0 .441.12.348.348 0 0 0 .119-.459 2.362 2.362 0 0 0-2.662-1.085 2.36 2.36 0 0 0-1.746 2.272v5.765zm9.783-7.884a.31.31 0 0 0-.305-.238.347.347 0 0 0-.322.238l-2.713 9.834a.358.358 0 0 0 .237.407.34.34 0 0 0 .367-.17l.032-.1c.049-.171.283-1.004.585-2.104h3.628l.577 2.137c.05.17.237.27.406.237a.332.332 0 0 0 .22-.407l-2.712-9.834zm1.323 7.223h-3.256l1.628-5.918 1.628 5.918zm3.73 2.95a.312.312 0 0 1-.322-.322v-9.699c0-.186.135-.322.322-.322h3.39c.187 0 .323.136.323.322a.312.312 0 0 1-.322.322h-3.069v4.036h2.73c.186 0 .322.136.322.322a.312.312 0 0 1-.322.322h-2.73v4.375h3.069c.186 0 .322.135.322.322a.312.312 0 0 1-.322.322h-3.391zM412.57 225.104a.492.492 0 1 0 .984 0 .492.492 0 0 0-.984 0zm3.255 0a.492.492 0 1 0 .984 0 .492.492 0 0 0-.984 0zm3.256 0a.492.492 0 1 1 .984 0 .492.492 0 0 1-.984 0z"/>
        <g stroke="#3D3D45" stroke-linecap="round" stroke-linejoin="round" stroke-width="2.119">
            <path d="M123.884 327.764l-32.305-36.256v-37.306l7.104-4.108 32.305-1.051 32.31 36.251v37.307l-7.105 4.116z"/>
            <path d="M91.578 254.204l32.305-1.047 32.31 36.255v37.303"/>
        </g>
    </g>
</svg>
