<svg xmlns="http://www.w3.org/2000/svg" xmlns:xlink="http://www.w3.org/1999/xlink" width="432" height="375" viewBox="0 0 432 375">
    <defs>
        <path id="b" d="M261.684 151.433c0 71.987-58.356 130.343-130.339 130.343C59.358 281.776.998 223.42.998 151.433c0-71.988 58.36-130.344 130.347-130.344 71.983 0 130.34 58.356 130.34 130.344"/>
        <filter id="a" width="215.1%" height="215.1%" x="-57.5%" y="-57.5%" filterUnits="objectBoundingBox">
            <feOffset in="SourceAlpha" result="shadowOffsetOuter1"/>
            <feGaussianBlur in="shadowOffsetOuter1" result="shadowBlurOuter1" stdDeviation="50"/>
            <feColorMatrix in="shadowBlurOuter1" values="0 0 0 0 0.294117647 0 0 0 0 0.474509804 0 0 0 0 0.917647059 0 0 0 0.15 0"/>
        </filter>
        <path id="c" d="M.806.624h2.903v9.894H.806z"/>
    </defs>
    <g fill="none" fill-rule="evenodd">
        <g transform="translate(85 39)">
            <use fill="#000" filter="url(#a)" xlink:href="#b"/>
            <use fill="#FFF" xlink:href="#b"/>
        </g>
        <path fill="#000" fill-rule="nonzero" d="M166.302 190.982a.319.319 0 0 0-.244.314c0 .156.104.278.244.33l10.097 2.786a.368.368 0 0 0 .418-.244.349.349 0 0 0-.182-.38l-2.255-.63v-3.725l2.193-.592a.368.368 0 0 0 .244-.418.341.341 0 0 0-.418-.226l-10.097 2.785zm7.416-1.358v3.343l-6.076-1.671 6.076-1.672zm3.03-5.083a2.425 2.425 0 0 0-1.132-2.716c-.174-.104-.366-.052-.47.122a.337.337 0 0 0 .121.453c.697.4 1.028 1.2.819 1.967a1.735 1.735 0 0 1-1.689 1.306h-5.92a1.75 1.75 0 0 1-1.688-1.306 1.733 1.733 0 0 1 .818-1.967.337.337 0 0 0 .122-.453c-.104-.174-.296-.226-.47-.122a2.392 2.392 0 0 0-1.114 2.716 2.404 2.404 0 0 0 2.333 1.793h5.919a2.44 2.44 0 0 0 2.35-1.793zm-10.638-10.184c.122-.14.331-.175.47-.07l3.917 2.785 5.85-2.82c.157-.07.365 0 .435.157a.33.33 0 0 1-.157.452l-5.5 2.647 1.723 1.236h3.638c.192 0 .33.156.33.348a.33.33 0 0 1-.33.33H166.39a.33.33 0 0 1-.331-.33c0-.192.14-.348.33-.348h5.31l-5.5-3.917a.336.336 0 0 1-.088-.47zM231.575 242.062a2.425 2.425 0 0 0-1.132-2.716c-.174-.104-.365-.052-.47.122a.337.337 0 0 0 .122.453c.696.4 1.027 1.2.818 1.967a1.735 1.735 0 0 1-1.689 1.306h-5.919a1.75 1.75 0 0 1-1.688-1.306 1.733 1.733 0 0 1 .818-1.967.337.337 0 0 0 .122-.453c-.105-.174-.296-.226-.47-.122a2.392 2.392 0 0 0-1.115 2.716 2.404 2.404 0 0 0 2.333 1.793h5.92a2.44 2.44 0 0 0 2.35-1.793zm-.174-7.016a.34.34 0 0 0 .243-.33.318.318 0 0 0-.177-.29l-.066-.024s-6.738-1.637-8.757-2.124l8.757-2.106a.34.34 0 0 0 .243-.331.319.319 0 0 0-.243-.314l-10.098-2.437a.33.33 0 0 0-.418.244.34.34 0 0 0 .185.37l.077.03 8.739 2.107-8.74 2.124a.317.317 0 0 0-.26.313c0 .134.076.256.197.31l.1.03 8.703 2.097-8.74 2.124c-.191.035-.295.21-.26.4a.358.358 0 0 0 .417.244l10.098-2.437zm-10.446-12.674v2.09c0 .173.14.33.33.33h10.029a.33.33 0 0 0 .33-.33.32.32 0 0 0-.33-.332h-4.544v-1.793l4.665-1.74a.334.334 0 0 0 .192-.436.334.334 0 0 0-.435-.191l-4.527 1.688a2.403 2.403 0 0 0-2.315-1.706h-.975c-1.34 0-2.42 1.08-2.42 2.42zm3.395-1.758c.975 0 1.758.783 1.758 1.758v1.758h-4.491v-1.758c0-.975.783-1.758 1.758-1.758h.975zm7.277-6.738a.312.312 0 0 0-.313-.313h-6.581v-1.428c0-.243.07-.504.191-.713a.316.316 0 0 0-.122-.436c-.139-.087-.33-.034-.417.122a2.112 2.112 0 0 0-.279 1.027v1.741c0 .175.14.314.313.314h6.895c.174 0 .313-.14.313-.314zm-.157-5.954a2.036 2.036 0 0 0-.452-2.228.305.305 0 0 0-.436 0 .305.305 0 0 0 0 .435 1.4 1.4 0 0 1 .314 1.55c-.227.54-.749.888-1.323.888h-1.428v-3.169a.312.312 0 0 0-.313-.313h-1.741a2.058 2.058 0 0 0-2.055 2.054c0 1.132.923 2.054 2.055 2.054h3.482a2.05 2.05 0 0 0 1.897-1.27zm-6.807-.783c0-.783.644-1.428 1.428-1.428h1.427v2.856h-1.427a1.434 1.434 0 0 1-1.428-1.428zm6.894-6.407v-1.427h1.497a1.45 1.45 0 0 1 1.324.87c.226.54.104 1.15-.314 1.567a.305.305 0 0 0 0 .435.305.305 0 0 0 .435 0 2.043 2.043 0 0 0 .453-2.228 2.023 2.023 0 0 0-1.898-1.27h-8.635a.312.312 0 0 0-.313.312v1.741c0 1.132.923 2.055 2.054 2.055h3.343a2.058 2.058 0 0 0 2.054-2.055zm-6.824 0v-1.427h6.198v1.427c0 .784-.645 1.428-1.428 1.428h-3.343a1.434 1.434 0 0 1-1.427-1.428zm-2.507-5.153a.487.487 0 1 0-.488.488.498.498 0 0 0 .488-.488zm9.088-.313h-6.964a.312.312 0 0 0-.314.313c0 .174.14.314.314.314h6.964c.174 0 .313-.14.313-.314a.312.312 0 0 0-.313-.313zm-.662-5.084c.279.296.4.697.33 1.097-.051.4-.295.749-.643.94a.316.316 0 0 0-.122.436.316.316 0 0 0 .435.121c.522-.296.853-.818.958-1.392a1.958 1.958 0 0 0-.488-1.62 1.965 1.965 0 0 0-1.567-.626 1.95 1.95 0 0 0-1.48.818l-1.131 1.62a1.286 1.286 0 0 1-.94.539 1.289 1.289 0 0 1-1.01-.4 1.28 1.28 0 0 1-.313-1.045c.052-.383.278-.697.609-.888a.316.316 0 0 0 .122-.435c-.087-.157-.279-.192-.435-.105a1.867 1.867 0 0 0-.923 1.34 1.874 1.874 0 0 0 .47 1.55c.4.418.94.644 1.515.61a1.823 1.823 0 0 0 1.41-.801l1.149-1.62c.226-.33.592-.539.992-.556.4-.035.783.121 1.062.417zm-5.92-3.046v-1.08h4.84a2.058 2.058 0 0 0 2.055-2.054.312.312 0 0 0-.313-.313.312.312 0 0 0-.314.313c0 .784-.644 1.428-1.427 1.428h-4.84v-1.428a.312.312 0 0 0-.314-.313.312.312 0 0 0-.313.313v1.428h-3.238a.312.312 0 0 0-.313.313c0 .174.139.313.313.313h3.238v1.08c0 .174.14.313.313.313.175 0 .314-.14.314-.313zm6.895-5.92a.312.312 0 0 0-.313-.313h-6.581v-1.427c0-.244.07-.505.191-.714a.316.316 0 0 0-.122-.435c-.139-.087-.33-.035-.417.122a2.112 2.112 0 0 0-.279 1.027v1.74c0 .175.14.314.313.314h6.895c.174 0 .313-.14.313-.313zm-4.178-6.25c0 1.132.922 2.055 2.054 2.055a2.058 2.058 0 0 0 2.054-2.054v-1.741a.312.312 0 0 0-.313-.314h-5.188c-.818 0-1.55.488-1.863 1.254-.313.748-.14 1.619.435 2.193a.305.305 0 0 0 .436 0 .277.277 0 0 0 .05-.379l-.05-.056a1.427 1.427 0 0 1-.296-1.514 1.42 1.42 0 0 1 1.288-.87h1.393v1.427zm2.054 1.428a1.423 1.423 0 0 1-1.428-1.427v-1.428h2.856v1.428c0 .8-.645 1.427-1.428 1.427zm-4.77-5.745v-1.08h4.84a2.058 2.058 0 0 0 2.054-2.053.312.312 0 0 0-.313-.314.312.312 0 0 0-.314.314c0 .783-.644 1.427-1.427 1.427h-4.84v-1.427a.312.312 0 0 0-.314-.314.312.312 0 0 0-.313.314v1.427h-3.238a.312.312 0 0 0-.313.313c0 .175.139.314.313.314h3.238v1.08c0 .173.14.313.313.313.175 0 .314-.14.314-.314zm-2.507-5.919a.487.487 0 1 0-.488.487.498.498 0 0 0 .488-.487zm9.088-.313h-6.964a.312.312 0 0 0-.314.313c0 .174.14.313.314.313h6.964c.174 0 .313-.139.313-.313a.312.312 0 0 0-.313-.313zm.313-4.7a2.058 2.058 0 0 0-2.054-2.055h-3.482a2.058 2.058 0 0 0-2.055 2.054c0 1.132.923 2.054 2.055 2.054h3.482a2.058 2.058 0 0 0 2.054-2.054zm-6.964 0c0-.784.644-1.428 1.428-1.428h3.482c.783 0 1.427.644 1.427 1.427 0 .784-.644 1.428-1.427 1.428h-3.482a1.434 1.434 0 0 1-1.428-1.428zm6.964-5.015c0 .174-.14.314-.313.314h-6.895a.312.312 0 0 1-.313-.314v-1.74c0-1.132.923-2.055 2.054-2.055h5.154c.174 0 .313.14.313.313 0 .175-.14.314-.313.314h-5.154c-.783 0-1.427.644-1.427 1.427v1.428h6.58c.175 0 .314.14.314.313z"/>
        <path stroke="#3D3D45" stroke-linecap="round" stroke-linejoin="round" stroke-width="2.176" d="M248.362 277.551c3.077-1.775 3.064-6.223-.022-7.982l-33.408-19.933a8.328 8.328 0 0 1-4.06-7.056L210.3 137.16"/>
        <path stroke="#FFB44B" stroke-linecap="round" stroke-linejoin="round" stroke-width="2.176" d="M183.515 110.344l-.004 2.176"/>
        <path stroke="#FFB44B" stroke-dasharray="4.391490463138551,6.589412870333176" stroke-linecap="round" stroke-linejoin="round" stroke-width="2.176" d="M183.502 119.113l-.187 132.68a4.118 4.118 0 0 0 1.984 3.538l19.098 11.547c3.09 1.754 3.104 6.207.022 7.982l-79.865 45.43c-3.342 1.897-7.49-.518-7.49-4.357v-11.06"/>
        <path stroke="#FFB44B" stroke-linecap="round" stroke-linejoin="round" stroke-width="2.176" d="M117.066 301.578v-2.176"/>
        <path stroke="#3D3D45" stroke-linecap="round" stroke-linejoin="round" stroke-width="2.176" d="M300.364 245.16l-.326 44.089c-.03 4.36-4.744 7.072-8.53 4.918l-32.395-18.458a7.623 7.623 0 0 0-7.59.017l-100.965 58.417c-4.31 2.498-9.702-.614-9.702-5.593v-25.814"/>
        <path fill="#FFB44B" d="M111.162 305.816l5.901-9.062 5.754 8.97z"/>
        <path stroke="#FFB44B" stroke-linecap="round" stroke-linejoin="round" stroke-width="1.088" d="M111.162 305.816l5.901-9.062 5.754 8.97z"/>
        <path fill="#3D3D45" d="M204.108 141.97l6.28-9.627 6.106 9.536z"/>
        <path stroke="#3D3D45" stroke-linecap="round" stroke-linejoin="round" stroke-width="1.119" d="M204.108 141.97l6.28-9.627 6.106 9.536z"/>
        <path fill="#3D3D45" d="M294.172 250.358l6.285-9.623 6.102 9.536z"/>
        <path stroke="#3D3D45" stroke-linecap="round" stroke-linejoin="round" stroke-width="1.119" d="M294.172 250.358l6.285-9.623 6.102 9.536z"/>
        <path fill="#CFCFE5" d="M177.229 40.107l-6.525 3.282 53.038 90.92 6.524-3.277V70.643z"/>
        <path stroke="#3D3D45" stroke-linecap="round" stroke-linejoin="round" stroke-width="2.176" d="M177.229 40.107l-6.525 3.282 53.038 90.92 6.524-3.277V70.643z"/>
        <path fill="#F8F6FF" d="M170.704 43.389v60.771l53.038 30.149V73.92z"/>
        <path stroke="#3D3D45" stroke-linecap="round" stroke-linejoin="round" stroke-width="2.176" d="M170.704 43.389v60.771l53.038 30.149V73.92z"/>
        <path fill="#9C9CBC" d="M286.084 192.218v30.575l45.372 25.796 7.66 4.356v-30.192z"/>
        <path fill="#3D3D45" d="M178.584 84.766V73.68l4.505 2.425c.997.53 1.784 1.014 2.368 1.445.583.426 1.066.879 1.462 1.349.5.618.88 1.249 1.127 1.897.244.64.375 1.32.375 2.02 0 1.236-.366 1.993-1.089 2.263-.722.274-1.767.044-3.129-.688l-2.102-1.131v3.395l-3.517-1.89zm3.517-4.213l1.127.605c.731.396 1.228.579 1.476.544.248-.03.37-.261.37-.68 0-.426-.122-.787-.357-1.079-.24-.296-.736-.644-1.489-1.049l-1.127-.605v2.264zm9.253 11.068V80.535l5.24 2.816c1.641.88 2.812 1.759 3.513 2.629.7.87 1.053 1.88 1.053 3.012 0 .674-.148 1.158-.431 1.454-.292.291-.731.4-1.332.343.61.453 1.049.954 1.332 1.484.274.536.426 1.176.444 1.929l.056 1.575c0 .009.005.022.01.044.017.452.121.735.312.857v.414l-3.547-1.902c-.065-.3-.108-.558-.143-.775a3.874 3.874 0 0 1-.048-.488v-1.1c0-.575-.109-1.037-.33-1.39-.227-.352-.615-.678-1.163-.97l-1.497-.805v3.821l-3.469-1.862zm3.469-4.453l1.597.853c.562.3.945.436 1.158.396.213-.039.318-.252.318-.63 0-.392-.105-.723-.318-.989-.213-.27-.627-.566-1.245-.896l-1.51-.814v2.08zm9.218 5.732c0-1.806.51-2.955 1.523-3.451 1.019-.496 2.407-.27 4.165.67 1.759.945 3.143 2.207 4.153 3.8 1.022 1.588 1.527 3.281 1.527 5.088 0 1.801-.505 2.95-1.527 3.45-1.014.501-2.394.284-4.153-.66-1.758-.945-3.146-2.212-4.165-3.805-1.014-1.593-1.523-3.29-1.523-5.092zm3.543 1.907c0 1.048.174 1.91.518 2.585.348.683.892 1.223 1.627 1.61.732.396 1.271.444 1.61.14.345-.31.519-.989.519-2.042 0-1.057-.174-1.924-.518-2.598-.34-.67-.88-1.206-1.61-1.602-.74-.396-1.28-.435-1.628-.13-.344.304-.518.979-.518 2.037z"/>
        <path stroke="#3D3D45" stroke-linecap="round" stroke-linejoin="round" stroke-width="2.176" d="M286.084 192.218v30.575l45.372 25.796 7.66 4.356v-30.192z"/>
        <path fill="#CFCFE5" d="M339.969 252.44c-2.224 1.102-5.841-.93-5.802-4.269l.61-52.794-53.038-30.531-4.34 2.08 4.34 54.152a7.823 7.823 0 0 0 3.948 6.785l43.623 24.926a10.16 10.16 0 0 0 9.662.226"/>
        <path stroke="#3D3D45" stroke-linecap="round" stroke-linejoin="round" stroke-width="2.176" d="M338.974 253.014a10.17 10.17 0 0 1-9.666-.226l-43.62-24.926a7.809 7.809 0 0 1-3.947-6.785l-4.339-54.152 4.34-2.08 53.032 30.531-.605 52.794c-.035 2.773 2.464 4.653 4.583 4.57.431-.013.222.274.222.274"/>
        <path fill="#F8F6FF" d="M277.4 166.924v56.232a7.823 7.823 0 0 0 3.943 6.785l43.628 24.926a10.148 10.148 0 0 0 9.662.226l4.483-2.145-2.834 1.301c-2.972 1.523-6.498-.662-6.454-3.995l.61-52.794-53.038-30.536z"/>
        <path stroke="#3D3D45" stroke-linecap="round" stroke-linejoin="round" stroke-width="2.176" d="M277.4 166.924v56.232a7.823 7.823 0 0 0 3.943 6.785l43.628 24.926a10.148 10.148 0 0 0 9.662.226l4.483-2.145-2.834 1.301c-2.972 1.523-6.498-.662-6.454-3.995l.61-52.794-53.038-30.536z"/>
        <path fill="#FFF" d="M285.008 179.199v21.174l18.48 10.506v-21.043z"/>
        <path stroke="#3D3D45" stroke-linecap="round" stroke-linejoin="round" stroke-width="2.102" d="M285.008 179.199v21.174l18.48 10.506v-21.043z"/>
        <path stroke="#3D3D45" stroke-linecap="round" stroke-linejoin="round" stroke-width="2.054" d="M311.156 194.432l12.47 7.059M310.727 201.959l12.469 7.06M310.31 209.487l12.47 7.059"/>
        <path stroke="#3D3D45" stroke-linecap="round" stroke-linejoin="round" stroke-width="2.102" d="M284.28 208.598l38.385 22.097M284.065 215.93l38.383 22.097M283.844 223.3l38.383 22.097"/>
        <path fill="#FF934A" d="M169.748 300.189v-38.305l-33.173-37.226-33.17 1.084-7.294 4.218 66.343 74.455z"/>
        <path fill="#F2DC7C" d="M129.28 228.872l-33.168 1.08v38.305l33.208-1.058z"/>
        <path fill="#FACB73" d="M129.28 228.872l33.174 37.226v38.305l-33.173-37.252z"/>
        <path fill="#FDB073" d="M96.111 268.264l33.17 37.226 33.173-1.075-33.134-37.23z"/>
        <g fill-opacity=".5">
            <path fill="#F9EDBD" d="M96.111 229.96l33.17-1.075 33.173 37.226-33.165 1.08z"/>
            <path fill="#FACB73" d="M162.455 266.11l-33.174 1.07v38.31l33.174-1.076z"/>
            <path fill="#FDB073" d="M96.111 229.96v38.305l33.17 37.226v-38.31z"/>
        </g>
        <path fill="#F9CD87" d="M96.111 229.96l7.295-4.221 33.169-1.08 33.173 37.226-7.294 4.226-33.174-37.239z"/>
        <path stroke="#3D3D45" stroke-linecap="round" stroke-linejoin="round" stroke-width="2.176" d="M129.28 305.488l-33.168-37.225v-38.305l7.294-4.217 33.17-1.08 33.173 37.222v38.304l-7.295 4.226z"/>
        <path stroke="#3D3D45" stroke-linecap="round" stroke-linejoin="round" stroke-width="2.176" d="M96.111 229.96l33.17-1.075 33.173 37.226v38.3"/>
        <g>
            <path fill="#3D3D45" d="M285.74 126.849c0 .211.035.422.092.608.192.614.762 1.037 1.248 1.302.426.234 1.079.448 1.079-.179 0-.441-.368-.758-1.824-1.974-1.341-1.114-2.87-2.323-2.87-4.029 0-1.955 1.673-1.878 3.41-.922 1.84 1.008 3.463 2.596 3.533 4.701l-2.467-1.353c.051-.295-.093-.59-.304-.848a2.588 2.588 0 0 0-.771-.634c-.355-.195-.934-.42-.934.058.044.627 1.254 1.42 2.45 2.406 1.198.992 2.382 2.202 2.382 3.75 0 2.208-2.026 1.805-3.908.772-.963-.525-3.702-2.375-3.721-5.088l2.605 1.43zM299.849 134.168c0 2.345-1.268 2.774-3.853 1.356-2.586-1.42-3.863-3.248-3.863-5.593v-5.19l2.605 1.43v4.611c0 .867 0 1.946 1.27 2.64 1.236.678 1.236-.4 1.236-1.267v-4.608l2.605 1.427v5.194zM304.37 137.905l1.53.838c.541.298 1.018.407 1.018-.246 0-.5-.298-.931-.912-1.27l-1.635-.9v1.578zm0-3.152l1.377.752c.544.3.886.333.886-.208 0-.429-.355-.778-.886-1.069l-1.376-.758v1.283zm-2.607-4.726l4.633 2.544c2.227 1.222 2.704 2.736 2.704 3.603 0 .854-.416 1.088-1.046 1.088.761.675 1.472 1.67 1.472 2.915 0 1.696-1.472 1.766-2.963.947l-4.8-2.633v-8.464zM285.93 138.68l1.008.55c.675.372 1.389.717 1.389-.14 0-.768-.595-1.143-1.235-1.495l-1.162-.637v1.722zm-2.605-5.322l4.362 2.394c2.297 1.26 3.104 3.392 3.104 4.595 0 2.051-1.376 2.26-3.322 1.19l-1.54-.844v2.56l-2.604-1.434v-8.46zM299.942 147.674c0 2.346-1.267 2.774-3.85 1.357-2.585-1.418-3.865-3.248-3.865-5.594v-5.19l2.608 1.43v4.611c0 .868 0 1.946 1.27 2.644 1.233.675 1.233-.404 1.233-1.27v-4.609l2.604 1.43v5.19zM304.468 151.411l1.53.842c.54.294 1.017.406 1.017-.247 0-.502-.298-.934-.912-1.273l-1.635-.896v1.574zm0-3.152l1.376.755c.544.298.886.333.886-.21 0-.43-.355-.778-.886-1.07l-1.376-.755v1.28zm-2.608-4.726l4.633 2.544c2.227 1.222 2.704 2.739 2.704 3.606 0 .855-.416 1.088-1.046 1.085.761.678 1.472 1.674 1.472 2.915 0 1.696-1.472 1.767-2.963.947l-4.8-2.633v-8.464zM311.24 148.683l2.604 1.43v6.295l3.747 2.054v2.167l-6.352-3.482z"/>
            <g transform="translate(318.2 152.484)">
                <mask id="d" fill="#fff">
                    <use xlink:href="#c"/>
                </mask>
                <path fill="#3D3D45" d="M1.102.624l2.608 1.43v8.464l-2.608-1.43z" mask="url(#d)"/>
            </g>
            <path fill="#3D3D45" d="M285.608 153.952c0 .211.035.422.093.608.192.614.761 1.037 1.248 1.302.425.234 1.078.448 1.078-.179 0-.441-.368-.758-1.824-1.974-1.34-1.114-2.87-2.323-2.87-4.029 0-1.955 1.673-1.878 3.411-.922 1.84 1.008 3.462 2.596 3.533 4.701l-2.467-1.353c.048-.295-.093-.59-.304-.845a2.632 2.632 0 0 0-.772-.637c-.355-.195-.937-.42-.937.058.048.627 1.254 1.42 2.454 2.406 1.197.992 2.381 2.202 2.381 3.75 0 2.208-2.026 1.805-3.91.772-.96-.525-3.7-2.375-3.722-5.088l2.608 1.43zM292.036 151.861l2.605 1.43v2.942l2.445 1.34v-2.94l2.608 1.43v8.464l-2.608-1.43v-3.354l-2.445-1.34v3.353l-2.605-1.43zM301.63 157.13l7.002 3.843v2.17l-4.397-2.416v1.056l3.997 2.195v2.016l-3.997-2.195v1.056l4.528 2.483v2.17l-7.133-3.914zM313.18 167.168l1.363.745c.484.266 1.15.547 1.15-.208 0-.534-.298-1.005-1.294-1.552l-1.219-.669v1.684zm-2.605-5.133l4.96 2.726c1.485.816 2.765 2.336 2.765 3.936 0 .877-.403 1.581-1.27 1.424.713.663 1.149 1.687 1.248 2.794.035.435.045 1.45.285 1.968l-2.612-1.43a7.994 7.994 0 0 1-.21-1.421c-.074-.845-.145-1.728-1.172-2.292l-1.389-.761v2.95l-2.605-1.43v-8.464z"/>
        </g>
    </g>
</svg>
