<svg xmlns="http://www.w3.org/2000/svg" xmlns:xlink="http://www.w3.org/1999/xlink" width="432" height="375" viewBox="0 0 432 375">
    <defs>
        <path id="b" d="M288.896 193.406c0 70.112-56.835 126.947-126.947 126.947S35 263.518 35 193.406 91.837 66.458 161.949 66.458s126.947 56.836 126.947 126.948"/>
        <filter id="a" width="224.1%" height="224.1%" x="-62%" y="-62%" filterUnits="objectBoundingBox">
            <feOffset in="SourceAlpha" result="shadowOffsetOuter1"/>
            <feGaussianBlur in="shadowOffsetOuter1" result="shadowBlurOuter1" stdDeviation="52.5"/>
            <feColorMatrix in="shadowBlurOuter1" values="0 0 0 0 0.294117647 0 0 0 0 0.474509804 0 0 0 0 0.917647059 0 0 0 0.1 0"/>
        </filter>
    </defs>
    <g fill="none" fill-rule="evenodd">
        <g>
            <use fill="#000" filter="url(#a)" xlink:href="#b"/>
            <use fill="#FFF" xlink:href="#b"/>
        </g>
        <g fill="#FFB44B">
            <path d="M229.402 279.546h-33.7a6.194 6.194 0 0 1-6.197-6.197 6.194 6.194 0 0 1 6.197-6.197h33.7a6.194 6.194 0 0 1 6.197 6.197 6.194 6.194 0 0 1-6.197 6.197M280.008 250.325h-41.04a6.765 6.765 0 0 1-6.762-6.77 6.761 6.761 0 0 1 6.761-6.765h41.041a6.766 6.766 0 0 1 6.77 6.765 6.77 6.77 0 0 1-6.77 6.77M286.106 184.58h-26.603a6.759 6.759 0 0 1-6.757-6.757 6.759 6.759 0 0 1 6.757-6.757h26.603a6.759 6.759 0 0 1 6.757 6.757 6.759 6.759 0 0 1-6.757 6.757M299.224 295.778h-33.377a8.478 8.478 0 0 1 0-16.956h33.377a8.481 8.481 0 0 1 8.478 8.478 8.481 8.481 0 0 1-8.478 8.478M327.287 223.438h-26.451a6.714 6.714 0 0 1-6.715-6.719 6.713 6.713 0 0 1 6.715-6.714h26.45a6.713 6.713 0 0 1 6.715 6.714 6.714 6.714 0 0 1-6.714 6.72M377.71 204.235h-24.899a8.478 8.478 0 0 1 0-16.956h24.9a8.481 8.481 0 0 1 8.478 8.478 8.481 8.481 0 0 1-8.478 8.478M355.8 265.712h-20.66a8.478 8.478 0 0 1 0-16.956h20.66a8.481 8.481 0 0 1 8.478 8.478 8.481 8.481 0 0 1-8.478 8.478M386.905 235.439h-12.183a8.478 8.478 0 0 1 0-16.956h12.183a8.481 8.481 0 0 1 8.478 8.478 8.481 8.481 0 0 1-8.478 8.478"/>
        </g>
        <path fill="#3D3D45" d="M149.276 269.98l-14.577-.162 6.036-13.026z"/>
        <path stroke="#3D3D45" stroke-linecap="round" stroke-linejoin="round" stroke-width="1.42" d="M149.276 269.98l-14.577-.162 6.036-13.026z"/>
        <path stroke="#3D3D45" stroke-linecap="round" stroke-linejoin="round" stroke-width="2.119" d="M140.844 265.861l73.278-42.745a28.745 28.745 0 0 0 14.264-24.836v-68.658"/>
        <path fill="#CFCFE5" d="M254.6 72.343l-39.744-22.708-5.647 3.659 39.745 22.708z"/>
        <path stroke="#3D3D45" stroke-linecap="round" stroke-linejoin="round" stroke-width="2.119" d="M254.6 72.343l-39.744-22.708-5.647 3.659 39.745 22.708z"/>
        <path fill="#A2A2BC" d="M248.953 76.003l5.646-3.658v71.048l-5.442 3.82z"/>
        <path stroke="#3D3D45" stroke-linecap="round" stroke-linejoin="round" stroke-width="2.119" d="M248.953 76.003l5.646-3.658v71.048l-5.442 3.82z"/>
        <path fill="#FF934A" d="M128.297 322.023v-37.307l-32.31-36.256-32.304 1.056-7.105 4.107 64.614 72.516z"/>
        <path fill="#F2DC7C" d="M88.884 252.564l-32.305 1.052v37.306l32.343-1.03z"/>
        <path fill="#FACB73" d="M88.884 252.564l32.309 36.256v37.307l-32.31-36.281z"/>
        <path fill="#FDB073" d="M56.578 290.93l32.305 36.256 32.31-1.047-32.272-36.26z"/>
        <path fill="#F9EDBD" fill-opacity=".5" d="M56.578 253.624l32.305-1.047 32.31 36.256-32.301 1.05z"/>
        <path fill="#FACB73" fill-opacity=".5" d="M121.193 288.831l-32.309 1.043v37.311l32.31-1.047z"/>
        <path fill="#FDB073" fill-opacity=".5" d="M56.578 253.624v37.307l32.305 36.256v-37.312z"/>
        <path fill="#F9CD87" d="M56.578 253.624l7.105-4.112 32.305-1.051 32.309 36.256-7.105 4.116-32.309-36.269z"/>
        <path fill="#F8F6FF" d="M209.21 53.293l.203 71.21 39.744 22.708-.203-71.21z"/>
        <path stroke="#3D3D45" stroke-linecap="round" stroke-linejoin="round" stroke-width="2.119" d="M209.21 53.293l.203 71.21 39.744 22.708-.203-71.21z"/>
        <path stroke="#BEBED7" stroke-linecap="round" stroke-width="4.239" d="M216.483 74.405l24.658 14.09M216.483 91.36l24.658 14.09M216.483 108.316l24.658 14.09"/>
        <g fill="#3D3D45">
            <path d="M218.285 23.192l1.092.645c.39.228.921.477.921-.132 0-.426-.237-.816-1.035-1.284l-.978-.576v1.347zM216.2 19l3.975 2.346c1.185.699 2.211 1.956 2.211 3.24 0 .699-.32 1.25-1.017 1.098.573.555.921 1.389.996 2.277.03.348.04 1.164.231 1.587l-2.09-1.233a6.45 6.45 0 0 1-.169-1.146c-.057-.675-.114-1.386-.942-1.872l-1.11-.654v2.36l-2.085-1.23v-6.773zM223.711 23.429l2.085 1.233v6.774l-2.085-1.23zM232.31 34.585c-.465.321-1.188.153-1.93-.282-2-1.182-3.233-3.465-3.233-5.394 0-2.58 1.812-2.544 3.342-1.641 1.725 1.014 2.817 2.598 3.12 4.374l-2.001-1.182c-.078-.54-.492-1.137-.987-1.428-1.434-.846-1.386.693-1.386 1.158 0 .636.258 1.896 1.527 2.646.486.288.98.33 1.083-.111l-.921-.543V30.73l2.772 1.635v3.729l-1.323-.777-.063-.732zM235.208 30.211l2.088 1.23v2.355l1.956 1.152v-2.352l2.087 1.23v6.777l-2.088-1.23v-2.688l-1.956-1.155v2.688l-2.087-1.23zM244.474 37.412l-1.9-1.119v-1.737l5.887 3.471v1.734l-1.9-1.119v5.04l-2.087-1.23zM251.368 44.241c0 .171.03.336.075.49.153.497.609.851.996 1.08.345.203.867.395.867-.109 0-.35-.297-.618-1.464-1.638-1.071-.936-2.295-1.953-2.295-3.318 0-1.566 1.338-1.449 2.733-.627 1.47.867 2.772 2.19 2.826 3.88l-1.974-1.168c.039-.234-.075-.47-.243-.684a2.28 2.28 0 0 0-.618-.537c-.285-.168-.75-.366-.75.015.036.507 1.005 1.18 1.962 2.013.957.831 1.91 1.836 1.91 3.078 0 1.767-1.622 1.377-3.131.486-.771-.45-2.961-2.019-2.982-4.194l2.088 1.233zM219.01 34.31c.263.033.54-.07.54-.384 0-.246-.193-.567-.457-.723-.237-.141-.504-.126-.504.168 0 .237.246.639.42.939zm-.553 1.488c-.273-.021-.654 0-.654.342 0 .369.321.83.645 1.017.303.183.57.138.798.063l-.789-1.422zm1.785 3.282c-.618.12-1.185-.066-1.935-.507-1.302-.765-2.307-2.241-2.307-3.561 0-.9.768-1.074 1.51-1.017-.313-.528-.535-1.074-.535-1.548 0-1.08 1.008-1.161 2.013-.57 1.263.747 2.175 1.833 2.175 3.039 0 .768-.597 1.053-1.242 1.01l.522.955a.59.59 0 0 0 .246-.366l1.563.924c-.093.522-.36.972-.795 1.173l1.383 2.478-2.22-1.314-.378-.696zM231.624 42.017c-.039-.27-.225-1.13-1.089-1.64-.978-.577-1.293.188-1.293 1.097 0 .913.315 2.047 1.293 2.623.7.413.978.083 1.101-.484l2.05 1.213c0 1.368-1.114 2.163-3.094.996-2.193-1.297-3.435-3.577-3.435-5.578 0-2.135 1.347-2.756 3.435-1.523 1.857 1.107 2.883 2.688 3.066 4.49l-2.034-1.194zM238.56 47.936l-.61-2.445-.018-.01-.654 1.699 1.281.756zm-1.645-5.322l2.043 1.203 2.466 8.229-2.166-1.275-.282-1.137-2.154-1.27-.306.79-2.097-1.24 2.496-5.3zM243.308 48.117l-1.899-1.119v-1.737l5.886 3.471v1.737l-1.899-1.119v5.04l-2.088-1.23zM251.359 55.485l-.606-2.445-.021-.009-.654 1.698 1.28.756zm-1.641-5.322l2.04 1.203 2.469 8.23-2.166-1.276-.282-1.137-2.157-1.269-.303.79-2.097-1.24 2.496-5.3zM255.17 53.376l2.085 1.233v5.04l3 1.767v1.737l-5.085-3zM264.862 64.342c.53.312 1.347.441 1.347-1.065 0-1.509-.816-2.343-1.347-2.655-.534-.315-1.347-.447-1.347 1.065 0 1.509.813 2.343 1.347 2.655m0-5.409c2.06 1.215 3.435 3.504 3.435 5.574s-1.374 2.739-3.435 1.521c-2.061-1.212-3.438-3.501-3.438-5.574 0-2.067 1.377-2.736 3.438-1.521M274.62 70.934c-.461.32-1.187.153-1.925-.282-2.004-1.182-3.237-3.465-3.237-5.394 0-2.58 1.815-2.544 3.345-1.641 1.725 1.014 2.814 2.598 3.12 4.374l-2.001-1.182c-.078-.54-.495-1.137-.987-1.428-1.434-.846-1.386.693-1.386 1.158 0 .636.255 1.896 1.524 2.646.486.288.98.33 1.086-.111l-.924-.543v-1.452l2.772 1.635v3.729l-1.32-.777-.066-.732zM283.667 74.341c0 1.881-1.014 2.184-3.08.963-2.074-1.221-3.097-2.727-3.097-4.605v-4.158l2.088 1.233v3.69c0 .693 0 1.56 1.017 2.157.987.582.987-.282.987-.975v-3.693l2.085 1.233v4.155zM285.202 71.089l5.607 3.309v1.737l-3.522-2.079v.846l3.201 1.884v1.617l-3.2-1.887v.846l3.626 2.139v1.734l-5.712-3.369zM294.024 80.79c0 .173.027.338.072.491.153.498.612.852.999 1.08.342.204.864.396.864-.108 0-.35-.294-.618-1.464-1.64-1.071-.934-2.292-1.95-2.292-3.316 0-1.569 1.335-1.449 2.733-.63 1.47.87 2.769 2.193 2.826 3.88l-1.974-1.165c.039-.234-.078-.47-.246-.684a2.28 2.28 0 0 0-.618-.537c-.285-.168-.75-.366-.75.015.036.504 1.005 1.18 1.965 2.01.957.831 1.908 1.84 1.908 3.081 0 1.767-1.623 1.377-3.132.486-.768-.45-2.961-2.019-2.98-4.194l2.089 1.23z"/>
        </g>
        <text fill="#000" font-family="Miso-Light, Miso" font-size="16.956" font-style="italic" font-weight="300">
            <tspan x="252.419" y="178.47">SACEM</tspan>
        </text>
        <text fill="#000" font-family="Miso-Light, Miso" font-size="16.956" font-style="italic" font-weight="300">
            <tspan x="292.011" y="218.406">SA</tspan> <tspan x="305.813" y="218.406" letter-spacing="-.171">B</tspan> <tspan x="312.729" y="218.406">AM</tspan>
        </text>
        <text fill="#000" font-family="Miso-Light, Miso" font-size="16.956" font-style="italic" font-weight="300" letter-spacing="-.678">
            <tspan x="189.514" y="273.275">W</tspan> <tspan x="199.992" y="273.275">arner</tspan>
        </text>
        <text fill="#000" font-family="Miso-Light, Miso" font-size="16.956" font-style="italic" font-weight="300">
            <tspan x="232.022" y="243.484">Uni</tspan> <tspan x="249.249" y="243.484" letter-spacing="-.168">v</tspan> <tspan x="255.185" y="243.484">ersal</tspan>
        </text>
        <text fill="#000" font-family="Miso-Light, Miso" font-size="16.956" font-style="italic" font-weight="300">
            <tspan x="265.39" y="287.23">SOCAN</tspan>
        </text>
        <text fill="#000" font-family="Miso-Light, Miso" font-size="16.956" font-style="italic" font-weight="300">
            <tspan x="332.722" y="257.167">CWR</tspan>
        </text>
        <text fill="#000" font-family="Miso-Light, Miso" font-size="16.956" font-style="italic" font-weight="300">
            <tspan x="352" y="195.686">SGAE</tspan>
        </text>
        <text fill="#000" font-family="Miso-Light, Miso" font-size="16.956" font-style="italic" font-weight="300">
            <tspan x="376.434" y="225.748">...</tspan>
        </text>
        <g stroke="#3D3D45" stroke-linecap="round" stroke-linejoin="round" stroke-width="2.119">
            <path d="M88.884 327.764l-32.305-36.256v-37.306l7.104-4.108 32.305-1.051 32.31 36.251v37.307l-7.105 4.116z"/>
            <path d="M56.578 254.204l32.305-1.047 32.31 36.255v37.303"/>
        </g>
    </g>
</svg>
